<?xml version="1.0" encoding="utf-8"?>
<!-- Generator: Adobe Illustrator 29.5.1, SVG Export Plug-In . SVG Version: 9.03 Build 0)  -->
<svg version="1.0"
	 id="svg2" xmlns:inkscape="http://www.inkscape.org/namespaces/inkscape" xmlns:sodipodi="http://inkscape.sourceforge.net/DTD/sodipodi-0.dtd" xmlns:svg="http://www.w3.org/2000/svg" xmlns:dc="http://purl.org/dc/elements/1.1/" xmlns:rdf="http://www.w3.org/1999/02/22-rdf-syntax-ns#" xmlns:cc="http://web.resource.org/cc/" sodipodi:docbase="C:\Documents and Settings\CBK\Bureaublad\buurt" sodipodi:docname="Drenthe_position.svg" sodipodi:version="0.32"
	 xmlns="http://www.w3.org/2000/svg" xmlns:xlink="http://www.w3.org/1999/xlink" x="0px" y="0px" viewBox="0 0 200 236"
	 style="enable-background:new 0 0 200 236;" xml:space="preserve">
<style type="text/css">
	
		.st0{fill-rule:evenodd;clip-rule:evenodd;fill:#FFD6C0;stroke:#000000;stroke-width:0.8135;stroke-linejoin:bevel;stroke-miterlimit:10;}
	
		.st1{fill-rule:evenodd;clip-rule:evenodd;fill:#FFC000;stroke:#000000;stroke-width:0.8135;stroke-linejoin:bevel;stroke-miterlimit:10;}
	
		.st2{fill-rule:evenodd;clip-rule:evenodd;fill:#FFD6C0;stroke:#000000;stroke-width:0.814;stroke-linejoin:bevel;stroke-miterlimit:10;}
</style>
<sodipodi:namedview  bordercolor="#666666" borderopacity="1.0" id="base" inkscape:current-layer="svg2" inkscape:cx="137.9126" inkscape:cy="170.27459" inkscape:pageopacity="0.0" inkscape:pageshadow="2" inkscape:window-height="742" inkscape:window-width="1024" inkscape:window-x="-4" inkscape:window-y="-4" inkscape:zoom="7.3363854" pagecolor="#ffffff">
	</sodipodi:namedview>
<path id="path17" class="st0" d="M174.61,7.85l-0.77,0.39l-3.1,0.39l-0.39,0.39l-1.16,0.39h-0.39l-0.39,0.39h-0.77l-0.77,0.77h-0.39
	h-0.39h-0.39l-0.77,0.39l-0.77,0.39l-0.39-0.39l-0.39,0.39h-1.94l-1.16,0.39l-1.55,0.39h-0.77l-0.77,0.39h-0.77l-1.16,0.39
	l-1.16,0.39l-0.39,0.39v0.39l-0.77,0.39l-0.39-0.39l-0.39-0.39l-1.94-1.16h-0.39l-1.55,0.77v-0.39h-0.39v0.39h-0.39v-0.39
	l-0.39,0.39l0.39,0.39h0.39l0.39,0.39h0.39l0.39,0.39h0.39v0.39h-0.39h-0.39h-0.39v-0.39l-0.77-0.39v-0.39h-0.77l-0.39,0.77h0.39
	l0.39,0.39h0.39v0.39l-0.39,0.39l-0.39-0.39v0.39l0.39,0.39h0.39h0.39h0.39h0.39h0.39v0.39h-0.77h-0.39v0.39h0.39h0.39h0.39
	l0.39-0.39v0.39v0.39h-0.39l0.39,0.39l0.39-0.39h0.39v0.39l-0.39,0.39h-0.77v0.39l0.39,0.39l0.39-0.39h0.39h0.39h0.39l0.39,0.39
	h0.39v2.32v0.39h0.39v0.39h-0.39l-0.39,0.39v0.39l-0.39,0.39h-0.39l-0.39,0.39v0.39v0.39v0.39h0.39l-0.39,0.39h-0.39v0.39
	l-0.39,0.39v0.39v0.39l-0.39,0.39l-0.39,0.39l-0.39,0.39V28h0.39h0.39v0.77v0.39v0.39l-0.39,0.77l-0.39,0.39h-0.39l-0.39,0.39v0.39
	l-0.39,0.77l-0.39,0.39v0.77v0.77v0.39v1.55l0.39,0.39l0.39,0.39l0.39,0.77h0.39h0.77h0.77h0.77h0.39l0.39,0.39l0.77,0.39l0.39,0.39
	v0.39l1.16,0.39l1.16,0.39h0.39l0.39-1.55h0.39V37.3v-0.39l0.77-1.94v-0.39l0.39-0.39l0.39-0.77l0.39-0.39v-0.39l0.39-0.39
	l0.77-0.39l0.77-0.39V31.1l0.39-0.39l0.77-0.39h0.77h0.39l0.39,0.39l0.39-0.39l0.39,0.39h0.77l0.39,1.16l0.39,0.39l0.39-0.39
	l0.39,1.16v0.39l0.39,0.39l0.77-0.39v0.39v0.39l0.39,0.39v0.39h0.77v0.39l0.39,0.39l0.39,0.39l0.39,0.39v0.39h0.39l-0.39,0.39
	l0.39,0.39v0.39l1.94-0.77h0.39l0.77-0.39h1.16h0.39h0.39L175,37.3h0.39v0.39l1.55,1.16l0.39,0.77l1.55,1.16v0.39l1.16,1.16
	l1.16,1.16l1.94,1.94l0.39,0.39l0.77,0.77l0.77,0.77l0.39,0.39v0.39l0.39,0.39l0.39,0.39l0.39,0.77l0.39,0.77h0.39v0.39h0.39
	l0.77,1.16l0.39,0.77l0.39,0.39l0.39,0.39h0.77v0.77l-0.39,0.39l-0.77,2.32v0.39h1.16v0.39h0.39l0.77,1.16l0.39,0.39l0.39-0.39v0.39
	h-0.39v0.77h1.16l-0.39-0.77V59l0.77-1.16l2.32-3.87l1.55-2.71l0.77-3.1l0.39-1.94l0.39-0.39v-0.39l-0.77-3.49v-1.94v-0.39v-2.71
	l-1.16-0.77v-0.77v-0.39v-0.39l0.39-0.39v-0.77v-0.39l0.39-1.16h0.39l0.39-0.39h0.77l-0.77-0.39l-0.39-0.39l0.39-0.39v-0.39v-1.55
	l-0.39-1.16v-0.39h-0.39l-1.16-0.39h-0.39v-0.39h-0.39h-0.39h-0.39h-0.39v-0.39h-0.39h-0.39h-0.77l-0.39-0.39h-0.39l-0.39-0.39
	l-0.39-0.39v-0.39v-0.77l0.39-0.39l-0.39-0.77V21.8h0.39l0.39-0.77v-0.39l-0.77,0.39l-0.39,0.39h-1.16h-0.39h-0.39h-0.39l-0.77-0.39
	v-0.39h-0.39h-0.39l-0.77-0.39l-0.77-0.39v0.39l-0.77-0.39l-0.77-0.39h-0.39v-0.39h0.39l-0.39-0.39l-0.77-0.77h-0.39l-0.39-0.39
	v-0.39v-0.77V15.6l-0.39-0.39v-0.39v-0.39v-0.77l-0.39-0.77h-0.39v-1.16l0.39-1.16v-0.39l-1.16-1.16l-0.77-0.39l-0.39,0.77
	l0.39,0.39h-0.39h-0.39h-0.39V9.4l0.39,0.39V9.4l0.39-0.77h-0.39l-0.77-0.39l-0.77,0.77l-0.39-0.39l-0.77-0.39H175L174.61,7.85z
	 M184.29,19.09l0.39,0.39v-0.39H184.29z M198.24,26.84v-0.77l-0.39,0.39L198.24,26.84z"/>
<path id="path41" class="st0" d="M119.61,80.31l-0.39,0.39l-2.71,0.77h-0.39l-0.39,0.39l-3.1,2.71v0.39h-0.39h-1.55h-0.39v0.39
	l-0.39,1.16v-0.39l-0.39,0.77v0.39v0.39v0.39v0.39l-0.77,0.39h-0.39l-0.39,0.39L107.61,90h-0.39h-0.39v0.39l-6.58,4.26l-1.16,0.77
	v0.39H98.7v0.39h-0.39h-0.23l-2.48,1.55l-0.39,0.39l-1.55,1.16h-0.39v0.39l0.77,0.77v0.77v1.16l-0.39,0.39h0.39l0.39,0.77h-0.39
	l0.39,0.39l0.39-0.39h0.39l1.55-0.39h0.39h0.39l0.39,0.39h0.39h0.39h0.77l1.16,0.39l0.77,0.77l1.16,0.39l0.77,0.77l3.49,3.1
	l0.39,0.77h0.39l0.77,0.39l0.77-0.39l1.94-0.77h0.39h0.77l0.39-0.39l1.16-0.39h0.39l0.39-1.55l0.39-0.39v-1.16h0.39v-0.77v-0.39
	v-0.39v-0.39h-0.39v-0.39l-0.39-0.77l0.39-0.39l1.16-1.16l0.77,0.39l1.16-0.39h0.39l0.39-0.39h-0.39l0.39-0.39l0.39-0.39l0.39-0.39
	l1.16-1.16l3.1-1.55h0.39h0.39l0.39,0.39h0.39l1.55-1.16l0.39-0.77l0.77-0.77l0.39-0.77l0.39-0.39l0.39-0.77l1.16-2.32l0.39-0.77
	v-0.39v-0.77v-1.94l-0.39-0.77l-1.94-1.94v-0.39h-0.39h-1.94h-0.39l-1.55-0.39l-3.49-1.16h-0.39L120,80.31H119.61z M98.08,96.19
	l0.62-0.39l-0.77,0.39H98.08z"/>
<path id="path55" class="st0" d="M146.34,12.89l-1.94,0.77h-0.39l-0.77-0.39h-1.16v0.39h-0.39h-0.39l-0.39-0.39l-1.55,0.39h-0.77
	h-0.39l-0.39,0.39l-1.55,0.39h-0.39h-0.39l-1.55,0.77h-0.77h-0.39h-0.39h-0.39v-0.39l-0.39-0.39v0.77l-0.77,0.39l-0.77,0.39
	l-0.39,0.39l-0.77,0.39l-0.39,0.39l-0.77,0.39h-0.77l-1.16,0.77l-1.55,0.77l-0.77,0.39l-1.94,1.16h-1.16L120,21.03l-0.77,0.39h-0.39
	l-0.39,0.39l-0.77,0.39l-0.77,0.39l-0.39,0.39l-0.77,0.77l-0.39,0.77l-0.39,0.39v0.39h-0.39v0.39l-0.77,0.39l-0.39,0.39h-0.39
	l-0.77,0.77l-0.39,0.39h-0.39L111.09,28l-0.39,0.77h-0.39l-0.39,0.39l-0.39,0.77l-0.39,1.16l-0.39,0.39v0.39h0.39l-0.39,0.39
	l-0.39,0.39l-0.39,0.39v0.39h0.39v0.77l-0.39,0.77v1.16v0.77v0.39l-0.39,0.39v0.39l-0.77,0.39h-0.39l0.39,0.39l-0.39,0.39v0.39
	l-0.39,0.39h0.39l0.39,0.39l0.39,0.77v0.39v0.39v0.39l0.39,0.77h-0.39l0.39,0.39h-0.39v-0.39h-0.77v0.39v0.39h0.39h0.39v0.77v0.39
	l0.39-0.39v0.39h-0.39v0.39h0.39l0.39,0.39v0.39v0.39v0.39l-0.39,0.39v0.77l0.39,1.16v0.77l0.39,0.39v0.13l0.77-0.52l-0.77,0.77
	v-0.25l-0.39,0.25v0.39v0.77h-0.39l-0.39,0.39l0.39,0.39l0.39,0.77v0.39v0.77v0.39l-0.39,0.39h-0.39h-0.39l-0.77,0.77l-0.39,0.39
	l-0.39,0.39l0.39,0.39v0.39v0.39h0.77v0.39h0.39l0.77,0.77l0.77,0.77h0.39h0.39h0.39h0.77v-0.39l1.16,0.39h0.77l0.39,0.39l1.55,0.77
	h0.77v0.39h0.77l0.39-0.39h0.39v-0.39l0.39-0.39v-0.39l0.77-0.39l0.77,0.39l0.39-0.39l0.77-0.39H120l0.39,0.39v0.77h0.39h0.39h0.77
	h0.39h0.39v0.39h0.39l0.39-0.39v0.39l0.77,0.39l-0.39-0.77l1.16,0.39h0.39l1.55,1.94l0.39,0.77v0.39l0.39-0.39l0.77-0.77h0.39v0.39
	h0.39h0.39v0.39h0.39h0.39l0.39,0.39h0.39h0.39h0.39l0.39-0.39h0.39v-0.39h0.39l0.39-0.39v-0.39l0.39-0.39v-0.39l0.39-0.39h0.77
	v-0.39l0.77,0.39v-0.39l0.77-0.39v0.77l0.39,0.77l0.39,0.39h0.39v0.39l0.39-0.39l1.16-0.39v0.77l0.77-0.39l0.39-0.39h0.39v-0.39
	l-0.39-0.77h0.39h1.16l0.39-0.39l0.39-0.39l1.16-0.77l1.16-0.77l0.77-0.77l1.55-0.77l0.39-0.39l0.39-0.39l1.16-1.55l0.77-0.39v-0.39
	v-0.39l0.77-0.39l1.16,0.39h1.16l1.55,1.55l1.55-1.16l1.16-1.16l0.39-0.39l0.39-0.39v-0.39l1.16-1.94l-0.39-0.39l-0.39-0.77
	l-0.39-0.77l-1.55-2.32l-0.77-1.16v-0.39v-1.16l0.39-1.16l-0.77-0.39h-1.16l-1.16-0.77l0.39-0.77l-1.16-0.39v-0.39l-0.39-0.39
	l-0.77-0.39l-0.39-0.39h-0.39h-0.77h-0.77h-0.77h-0.39l-0.39-0.77l-0.39-0.39l-0.39-0.39v-1.55V34.2v-0.77v-0.77l0.39-0.39
	l0.39-0.77V31.1l0.39-0.39h0.39l0.39-0.39l0.39-0.77v-0.39v-0.39V28h-0.39h-0.39v-0.39l0.39-0.39l0.39-0.39l0.39-0.39v-0.39v-0.39
	l0.39-0.39V24.9h0.39l0.39-0.39h-0.39v-0.39v-0.39v-0.39l0.39-0.39h0.39l0.39-0.39v-0.39l0.39-0.39h0.39v-0.39h-0.39v-0.39V18.7
	h-0.39v-0.39h-0.77h-0.39l-0.39,0.39h-0.39h-0.39l0.39,0.39v0.39h-0.39v-0.39l-0.39-0.39v-0.39h-0.39l0.39-0.39h-0.39l-0.39-0.39
	v0.39l-0.39,0.77v-0.39v-0.39l-0.77-0.39l-0.39,0.39v0.39l0.77,0.77v0.39h-0.39v-0.39l-0.39,0.39v-0.39l-0.39-0.39v-0.39v-0.39
	v-0.77l-0.39-0.39v-0.39l0.39-0.39h-0.39V15.6v-0.39l-0.39-0.39l0.39-0.77v-0.39v-0.39L146.34,12.89z M148.66,17.93v0.39l0.39,0.39
	L148.66,17.93z M106.06,40.01l-1.16,1.16h-0.39h-0.39l0.39,0.39h0.39l0.39-0.39L106.06,40.01z M108.77,32.26v-0.39l-0.39,0.39
	H108.77z M146.34,20.25h0.39v0.39L146.34,20.25z M145.56,20.64h0.39l-0.39,0.39V20.64z M107.61,43.89h0.39l-0.39,0.39V43.89z"/>
<path id="path65" class="st0" d="M140.53,9.4v0.39l-0.39,0.39h-0.39l0,0V9.79V9.4l0,0l0.39-0.39l0,0h0.39V9.4z"/>
<path id="path71" class="st0" d="M124.26,9.02h1.16h1.16l5.04-0.39l2.32-0.39h1.16l0.77,0.39h0.39v0.39l0,0V9.4h-0.39h-1.16h-0.77
	h-1.16l-0.77,0.39l0,0l-0.77,0.39h-0.39l0,0l0,0l-1.55,0.39l-1.55,0.39h-0.77h-0.39h-0.39l-1.16-0.39h-0.39h-0.77h-0.39v0.39
	l-0.39,0.39l-0.39,0.39h-0.77l-0.39,0.39h-0.39h-0.39h0.39l-0.39,0.39l-0.39-0.39h-0.77l-0.39-0.39l-0.77-0.39l-0.39-0.77v-0.39
	l0.39-0.39l0.39-0.77l0.39-0.39L120,7.85h0.39h0.39l0.39,0.39h0.39l0.39,0.39h-0.39l0,0l-0.39-0.39l0,0h-0.39H120l-0.39,0.39h0.77
	h0.39l0,0l1.55,0.39H124.26z"/>
<path id="path99" class="st0" d="M154.86,4.75v0.77h-0.39h-0.39h-0.39h-0.39l-0.77,0.39l0,0l-1.16,0.39l-0.39,0.39v0.39l-0.77,0.39
	h-0.39h-0.77l0,0h-0.39l0,0l-1.16,0.39h-0.39l0,0h-1.16h-0.39l-0.39,0.77v0.39h-0.39V9.4l0,0h-0.39l0,0h-0.39v0.39l0,0l-0.39-0.77
	l0,0V8.63h0.39l0.39-0.39l-0.39-0.39V7.47V6.69l0.39-0.39l0.77-0.39V5.53l0,0h-0.39h-0.39h-0.39l0,0h-0.39h0.39l0,0l0.39-0.39
	l0.77,0.39h1.16l3.87-0.39h1.16l2.32-0.39l0.77-0.39L154.86,4.75z"/>
<path id="path105" class="st0" d="M99.86,26.84L99.86,26.84L99.86,26.84l-0.39-0.39h0.39l0,0h0.77h0.39l0,0h-0.39v0.39h-0.39l0,0
	H99.86v-0.39l0,0l0,0l0,0V26.84z"/>
<path id="path107" class="st0" d="M109.16,13.67h-1.55l-0.77,0.39h-0.39l-0.39,0.39l0,0l-0.77,0.77l-0.39,0.39l0,0h-0.39h-0.39v0.39
	h-0.39l-0.39-0.39v0.39h-0.39l-0.39,0.39l0,0l0,0h-0.39v0.39l0,0l-0.39-0.39h-0.39l0,0h-0.39h-0.39l0,0l-0.39,0.39l-0.39,0.39
	l-0.39-0.39l-0.39,0.39H98.7l-0.39,0.39v0.39l0,0l0,0h-0.39l-0.77,0.39h0.39l-0.39,0.39h-0.39h-0.77l-0.39-0.77h-0.39l0,0v-0.39
	l0.39-0.39l0.77-1.16l0.77-1.16l0,0l0.77-0.39l0.77-0.39l1.55-0.39l2.32-0.39h0.77l2.32-0.77l1.94-0.77l4.26-1.55h1.16l1.16-0.39
	l0.39,0.39h0.39l0.39,0.39l0,0v0.77v0.39l0,0v-0.39v-0.39l-0.39-0.39l0,0v0.39l-0.39,0.39l0,0l-0.39,0.39h-0.77h-0.39l-0.77,0.39
	l0,0l0,0l-0.39-0.39l0,0l0,0l0,0v0.39h0.39l-0.39,0.39h-0.39l0,0h-0.39v-0.39h-0.39l0,0l0.39,0.39v0.39h-0.39h-0.39l0,0l-0.39-0.39
	l0,0l0,0l0.39,0.39l0.39,0.39h0.39h0.39l0,0l-0.39,0.39h-0.77h-0.77H109.16z"/>
<path id="path109" class="st0" d="M95.6,22.58L95.6,22.58l-0.39,0.39l-0.39,0.39h-0.39h-0.39h-0.39l0,0v0.39l0,0h-0.39l0,0v-0.39
	l0,0h0.39h-0.39l0.39-0.39l0.39-0.39h0.77H95.6L95.6,22.58z"/>
<path id="path111" class="st0" d="M90.56,22.96v0.39l-0.39,0.39l-0.77,0.39l-2.32,0.77l-0.77,0.39v0.39v0.77h0.39v-0.39l0,0l0,0l0,0
	h0.39l-0.39,0.39l-0.39,0.77l0,0l0,0L85.14,28l-0.39,0.39h-0.39v0.39l-0.39,0.39l-0.77,0.39l0,0l0,0h-0.39h-0.77h-1.16l-0.39,0.39
	l0,0v0.39h0.39h-0.39h-0.39l0,0v-0.77v-0.39v-0.39l2.32-1.16l1.16-1.16l0.77-0.39l0.77-0.77l0.39-0.39l1.55-1.16l0.77-0.39
	l0.39-0.39l0,0l1.16-0.39l0.77-0.39l0.77-0.39h0.39l1.16,0.39v0.39l-0.39,0.39l0,0l0,0h-0.39h-0.39H90.56z"/>
<path id="path117" class="st1" d="M161.06,30.33l-0.77,0.39l-0.39,0.39v0.39l-0.77,0.39l-0.77,0.39l-0.39,0.39v0.39l-0.39,0.39
	l-0.39,0.77l-0.39,0.39v0.39l-0.77,1.94v0.39v1.16h-0.39l-0.39,1.55h-0.39l-1.16-0.39l-0.39,0.77l1.16,0.77h1.16l0.77,0.39
	l-0.39,1.16v1.16v0.39l0.77,1.16l1.55,2.32l0.39,0.77l0.39,0.77l0.39,0.39l-1.16,1.94v0.39l-0.39,0.39l-0.39,0.39l-1.16,1.16
	l-1.55,1.16l-1.55-1.55h-1.16l-1.16-0.39l-0.77,0.39v0.39v0.39l-0.77,0.39l-1.16,1.55l-0.39,0.39l-0.39,0.39l-1.55,0.77l-0.77,0.77
	l-1.16,0.77l0.39,0.77v0.39l1.16,1.16l0.39,0.39l0.77,0.77l0.39,0.39l0.39,0.39l0.39,0.77h0.39l-0.39,0.77l-0.39,0.39l-0.77,0.77
	v0.39h-0.39l-0.39,0.39l-1.16,0.39l-0.39,0.39h-0.39v0.39l0.39,0.77l0.39,0.77l0.39,0.77v0.39v0.39l0.77,1.16v0.39l0.77,0.39v0.39
	l-0.39,0.39l1.16,0.39l-0.39-0.39l0.39-0.39v0.39l0.39,0.39v-0.39l0.39-0.39h0.39h0.39h0.39v0.39h0.39h0.39h0.39v0.39l0.39,0.39
	h0.39v0.39h0.39h0.39v-0.39h0.39v0.39h0.39h0.39h0.39l0.39-0.39h0.39h0.39v0.39h-0.39v0.39h0.39v0.39l0.39,0.39h0.39l0.39,0.39h0.39
	v0.39v0.39h0.39v0.39l0.39,0.39v0.77l0.39,0.39h0.39v-0.39h0.39h0.39v-0.39h0.39v0.39h0.39v-0.39l0.39-0.39h0.39v0.39v0.39h0.39
	l0.39,0.39l0.39-0.39l0.39-0.39v-0.39l0.39,0.39l0.39,0.39h0.77h0.39l0.39,0.39h0.39v-0.39l-0.39-2.32l0.77-0.77l0.77-0.77
	l0.39-0.39h1.55l1.16-0.39h0.39v-0.39l0.77,0.39l0.77,0.39l0.77,0.39l1.55,0.77h0.77l0.39,0.39l-0.39,0.39v0.39v0.39v0.39h0.39
	l0.39-0.39H175l0.39-0.39l0.39-0.77h0.77h0.39l0.39-0.39h0.39h0.39h0.39h0.39h0.39l0.39,0.39l0.39-0.39h0.39h0.77h0.77l0.39-0.39
	l0.39,0.39h0.77h0.39l0.77,0.39v0.39h0.39h0.77h0.39h0.39h0.77l0.39-0.39h0.39l0.39,0.39l0.39-0.39v0.39h0.39l1.16,0.39h0.39
	l0.77-0.77v-0.39v-0.77v-1.55l0.39-3.87v-5.04v-2.32l1.16-2.32h-1.16v-0.77L191.65,59l-0.77-1.16h-0.39v-0.39h-1.16v-0.39l0.77-2.32
	l0.39-0.39v-0.77h-0.77l-0.39-0.39l-0.39-0.39l-0.39-0.77l-0.77-1.16h-0.39v-0.39h-0.39l-0.39-0.77l-0.39-0.77l-0.39-0.39
	l-0.39-0.39v-0.39l-0.39-0.39l-0.77-0.77l-0.77-0.77l-0.39-0.39l-1.94-1.94l-1.16-1.16l-1.16-1.16v-0.39l-1.55-1.16l-0.39-0.77
	l-1.55-1.16V37.3H175l-0.39-0.39h-0.39h-0.39h-1.16l-0.77,0.39h-0.39l-1.94,0.77v-0.39l-0.39-0.39l0.39-0.39h-0.39v-0.39l-0.39-0.39
	l-0.39-0.39l-0.39-0.39v-0.39h-0.77v-0.39l-0.39-0.39v-0.39v-0.39l-0.77,0.39l-0.39-0.39v-0.39l-0.39-1.16l-0.39,0.39l-0.39-0.39
	l-0.39-1.16h-0.77l-0.39-0.39l-0.39,0.39l-0.39-0.39h-0.39H161.06z M192.04,59.39h0.39V59L192.04,59.39z"/>
<path id="path129" class="st2" d="M144.01,59.39l-1.16,0.77l-0.39,0.39l-0.39,0.39h-1.16h-0.39l0.39,0.77v0.39h-0.39l-0.39,0.39
	l-0.77,0.39V62.1l-1.16,0.39l-0.39,0.39v-0.39h-0.39l-0.39-0.39l-0.39-0.77v-0.77l-0.77,0.39v0.39l-0.77-0.39v0.39h-0.77l-0.39,0.39
	v0.39l-0.39,0.39v0.39l-0.39,0.39h-0.39v0.39h-0.39l-0.39,0.39h-0.39h-0.39h-0.39l-0.39-0.39h-0.39h-0.39v-0.39h-0.39h-0.39v-0.39
	h-0.39l-0.77,0.77l0.39,0.77l0.39,0.39l0.39,0.39v0.39h0.77h0.77l0.39,0.39l1.16,0.39l0.39,0.77l0.39,0.39h0.39l0.77,0.77l0.39,1.16
	l0.77,1.55v0.39h0.39l0.39,0.39v0.39l0.39,0.39v0.39v0.39l-0.77,0.39l-0.39,0.39l-0.39,0.39v0.39v0.39h0.39v-0.39l0.77,0.39h0.39
	l0.77,0.39l0.39,0.39l0.39,0.39h0.77l0.39,0.77l-0.39,0.39l-1.16,0.77h-0.39l-1.16,0.39v0.39l-0.77,0.39h-0.39l-0.77,0.39
	l-0.39-0.39l-0.39-0.39l-3.1,0.77l-0.39,0.39v0.77v0.39v0.39l0.39,0.39v0.39l-1.55-0.39l0.39,0.39h0.39h0.39v0.39l0.39,0.39v0.39
	v0.39l0.39,0.39l0.39,0.39v0.39v0.39l0.39,0.39v0.77v0.77l0.77-0.39l0.39,0.39l0.77,1.16l0.39,0.77l0.77,1.16v0.77l0.77-0.39
	l0.39-0.39l0.39-0.39v0.39l0.39,0.39l0.39-0.39l0.77-0.77l0.77-0.77l0.39-0.39h0.39h0.39l0.39-0.39l0.39,0.39h0.39l0.39,0.39
	l0.39,0.39V90v0.39l0.39,0.39l1.16,0.39l0.39,0.39v0.39l0.39,1.16v0.77l0.39,0.39l0.39,0.39v0.77l-0.39,0.39v0.39v0.77l0.39,0.39
	h0.39v0.39v0.39v0.77h-0.39v0.39h-0.39l-0.77,0.39h-0.77v0.39h-0.39v0.39l0.39,0.39h0.39l0.39,0.39h-0.39l-0.39,0.39h-0.39v0.77
	v0.77v0.77h-0.39v0.39h0.39h0.39v0.39v1.16h0.39h0.39h0.39v0.39v0.39h0.39v1.16l0.39,0.39l0.39,0.39v0.39v0.39v0.39l0.39,0.39h0.39
	h0.39h0.39v0.39h-0.39l-0.39,0.39v0.39l0.39,0.77h0.39h0.39v-0.39l0.77-0.39h0.39v0.39h0.77h0.39l0.39,0.39v-0.39h0.39h0.39h0.39
	h0.77h0.39l0.39,0.39l0.39-0.39h0.39h0.39h0.39v0.39h1.16v-0.39h0.77v-0.77h0.39l0.39-0.39h0.77h0.39l0.39-0.39v0.39h0.39h0.39h0.77
	h0.39v0.39v0.39l0.39,0.77l1.16,0.77v0.77h0.39v0.39h0.77v0.77l0.39,0.39v0.39h0.39l0.39,0.39l0.77-0.39h0.39l1.94,0.39l1.55-0.39
	h0.39l0.77,0.39l-0.39,0.39l0.39,0.39l0.39,0.39v-0.39l0.39-0.39l0.39-0.39l0.39,0.39v0.39l0.39-0.77h0.39l1.16,0.77v0.39v0.39v1.16
	l-0.77,1.16h0.77h0.39l0.77,0.39l0.77,0.39h0.39h2.32h3.1h1.16l0.39-0.39l0.39-0.39l0.39-0.39v-0.39l0.39-1.94h0.39v-0.39l1.16-0.77
	v-0.39l1.16-0.39h1.16l0.39-0.77v-0.39l0.39-0.39v-0.39l0.39-0.39v-0.39v-0.39v-0.39l0.39-0.39l0.77-0.39l0.39,0.39h0.39h0.39h0.77
	l1.16-0.77v-0.39l-1.16-1.55l-0.39-0.39v-0.77h-0.39v-0.39v-0.39v-0.39v-0.39l0.39-1.16v-0.39h0.39v-0.39h0.39v-0.39v-0.39
	l0.39-0.77v-0.39l0.77-1.16v-1.94l-0.77-1.55v-0.39v-0.39h-0.39h-0.39h-0.39l-0.39-0.77l-0.39-0.77l-0.77-0.77v-0.39l-0.39-0.77
	v-0.77l-0.39-0.77v-0.39h-0.39h-0.39l-0.39,0.77l-0.39,1.16l-0.77,0.39v0.39h-0.39l-1.94-0.39l-0.77-0.39l-1.16-0.39h-0.77
	l0.39-0.77h-0.77h-1.16h-2.32h-0.77l-0.39-0.39L175,90.77l-0.39-0.39L173.84,90l0.39-3.1l-0.77-1.16l-0.77-1.55h0.39l0.77,0.39h0.77
	l0.39-1.16h0.77l0.77,0.39l0.39-0.39l-2.32-1.94V80.7l0.39-1.55v-0.39l-0.39-0.39l-0.39-0.39h-0.39V77.6v-0.39v-0.39l0.39-0.39
	l-0.39-0.39h-0.77l-1.55-0.77l-0.77-0.39l-0.77-0.39l-0.77-0.39v0.39h-0.39l-1.16,0.39h-1.55l-0.39,0.39l-0.77,0.77l-0.77,0.77
	l0.39,2.32v0.39h-0.39l-0.39-0.39h-0.39h-0.77l-0.39-0.39l-0.39-0.39v0.39l-0.39,0.39l-0.39,0.39l-0.39-0.39h-0.39v-0.39v-0.39
	h-0.39l-0.39,0.39v0.39h-0.39v-0.39h-0.39v0.39h-0.39h-0.39v0.39h-0.39l-0.39-0.39v-0.77l-0.39-0.39V77.6h-0.39v-0.39v-0.39h-0.39
	l-0.39-0.39h-0.39l-0.39-0.39v-0.39h-0.39v-0.39h0.39v-0.39h-0.39h-0.39l-0.39,0.39h-0.39h-0.39h-0.39v-0.39h-0.39v0.39h-0.39h-0.39
	v-0.39h-0.39l-0.39-0.39v-0.39h-0.39h-0.39h-0.39v-0.39h-0.39h-0.39h-0.39l-0.39,0.39v0.39l-0.39-0.39v-0.39l-0.39,0.39l0.39,0.39
	l-1.16-0.39l0.39-0.39v-0.39l-0.77-0.39v-0.39l-0.77-1.16v-0.39v-0.39l-0.39-0.77l-0.39-0.77l-0.39-0.77v-0.39h0.39l0.39-0.39
	l1.16-0.39l0.39-0.39h0.39v-0.39l0.77-0.77l0.39-0.39l0.39-0.77h-0.39l-0.39-0.77l-0.39-0.39l-0.39-0.39l-0.77-0.77l-0.39-0.39
	l-1.16-1.16v-0.39L144.01,59.39z M146.72,112.08v0.39v0.39l0.39-0.39L146.72,112.08z"/>
<path id="path151" class="st0" d="M123.87,60.55l0.39,0.77l-0.77-0.39v0.39h-0.39l-1.94,0.39h-0.39v0.39l-1.16,1.94l-1.94,3.1v0.39
	l-0.39,1.16v3.87v1.94v0.77v0.39v0.39h0.39l0.39,0.39l0.39,0.39l0.77,1.16l1.16,1.55l0.39,0.39h0.39h3.87h0.39h1.16h3.1h0.39
	l3.1-0.77l0.39,0.39l0.39,0.39l0.77-0.39h0.39l0.77-0.39v-0.39l1.16-0.39h0.39l1.16-0.77l0.39-0.39l-0.39-0.77h-0.77l-0.39-0.39
	l-0.39-0.39l-0.77-0.39h-0.39l-0.77-0.39v0.39h-0.39v-0.39V74.5l0.39-0.39l0.39-0.39l0.77-0.39v-0.39v-0.39l-0.39-0.39v-0.39
	l-0.39-0.39h-0.39v-0.39l-0.77-1.55l-0.39-1.16l-0.77-0.77h-0.39l-0.39-0.39l-0.39-0.77l-1.16-0.39l-0.39-0.39h-0.77h-0.77V65.2
	l-0.39-0.39l-0.39-0.39l-0.39-0.77l-0.39,0.39v-0.39l-0.39-0.77l-1.55-1.94h-0.39L123.87,60.55z"/>
<path id="path169" class="st0" d="M132.01,87.28l-0.77,0.39v0.39l-0.39,1.16L130.46,90v0.39v0.39l-0.39,0.77v0.39v0.39l-0.39-0.39
	v0.77h-0.39v-0.39v-0.39l-0.39,0.77v0.39h0.39v0.39h-0.39l0.39,0.39l-0.39,0.39l-0.39,0.39l-1.16,1.16l-0.77,0.77l-0.77,0.39v0.39
	h-0.39l-0.39,0.39h-0.39l-0.39,0.39v0.39h-0.39v0.39h-0.39h-0.39l-0.77,0.39l-0.39,0.39h-0.39l-0.39,0.39l-0.77,0.39H120l-0.39,0.39
	l-0.39,0.39v0.39h-0.39h-0.39v0.39v0.39h-0.39v0.39h-0.39v0.39h-0.39v0.39l-0.77,0.39l-0.39,0.39l-0.39,0.39v0.39l-0.39,0.77v0.77
	l-0.39,0.77v0.39l-0.39,0.77l-0.39,0.39h-1.55h-0.39l-0.77,0.77l-0.39-0.39l-0.39,0.39l-1.16,0.39h-0.77l-0.39,0.39h-0.77
	l-0.39,1.94v0.39l0.77,0.39v-0.39l1.55,1.16v0.39v0.39v0.39v0.39v1.16l0.39,0.39h1.94v0.39h-0.39l0.39,0.39v0.39v0.39h0.39h0.39
	v0.77h0.77v0.39v0.39h-0.77v0.39v0.39h0.39v0.39h-0.39h-0.39v0.39l-0.39,0.39v0.77v0.39l-0.39,0.39l-0.39,0.39h-0.39v0.39l0.39,0.39
	l0.77,0.39h0.39h0.39l0.39-0.39l0.39-0.39h0.39l0.39-0.39v-0.39h0.39v-0.39v-0.39l-0.39-0.39l1.16-0.39l0.39,0.77v0.39v0.39v0.39
	l0.39,0.39l-0.39,0.39v0.39v1.94h0.77v0.39h-0.39l1.16,0.77v1.16v0.39v0.39v0.39l0.39,0.39l0.39,0.39h0.39v0.39l0.39,0.77V133
	l0.39,0.39l-0.39,0.39l0.39,0.39v0.39v0.39l-0.39,0.39l-0.77,0.39l-0.77-0.39l-1.16-0.39l-0.77-0.39l-0.39-0.77h-0.39h-0.39
	l-0.39-0.39h-0.39l-0.77-0.39l-0.39-0.39h-0.39h-0.39h-1.16l-0.39-0.39h-0.39l-0.39,0.39l-0.39,0.39h-0.39l-0.77,0.39h-0.39
	l-0.39,0.39h-0.39l-0.77-0.39l-0.39,0.39h-0.39l-0.39,0.39v0.39h-0.39l-0.39,0.39h-0.39l-0.39-0.39l-0.39-0.39h-1.16h-0.39
	l-0.77-0.77L99.47,133h-0.39H98.7v0.77l-0.39,0.39l-0.39,0.39h-0.39h-0.39l-0.39-0.39l-0.39-0.39l-0.39,0.77l-0.39,1.16l-0.77,0.77
	l-0.39,0.39h0.39l-0.39,0.39l-0.39,0.77h-0.39v0.39l-0.39,1.16l-0.39,0.39v0.39H92.5h-0.77h-0.39v0.77l-0.39,0.39h-0.39h-0.39h-0.39
	v0.39v0.39l0.39,0.39v0.39h-0.39l-0.39-0.39l-1.16,0.39l-0.39-0.39l-0.77,0.39l-0.39-0.39v0.39v0.39l0.39,0.39h-0.39l0.39,0.39h0.39
	h0.39h0.77l-0.39,1.55v0.39h-0.77v0.39v0.39h0.39l0.39,0.39l0.77,0.39l0.39,0.39h0.39v0.39l0.39,0.39v0.39h0.39v0.39h0.39l0.39-0.39
	l0.39-0.39h0.39l0.39,0.39l0.39,0.39l1.16,0.39v0.39v0.39v0.39l0.39,0.39l-0.39,0.39l-0.39,0.39h-0.39v0.39l0.39,0.39l0.77-0.39
	h0.77h0.77h0.39h0.77h0.39h0.39l0.39-0.39l0.39,0.39l0.77,0.39l0.39,0.39l0.39-0.39l0.39-0.39h0.77l0.77,0.39h0.39v-0.39l0.77-0.39
	l1.94-0.77v-0.39h0.39v-0.77v-0.77l0.39-0.77v-0.39l0.77-1.16l0.39-0.39l0.39-0.39v-0.39l0.39-0.39h0.39v0.39l0.39,0.39l0.39,0.39
	h0.39h0.77h0.77l0.39-0.39l0.39-0.77v-0.39h0.39h0.39h0.39l0.39,0.39v0.39h0.39h0.39l0.39,0.39h0.39l0.39-0.39v-0.39l0.39-0.39h0.39
	h0.77h0.39h0.39l0.77,0.39l0.39,0.39h0.39H120l0.39,0.39v0.77l0.39,0.39l0.39,0.39l0.39,0.39h0.39h0.39l0.39,0.39h0.39v0.77h0.39
	l0.39,0.39h0.39h0.39l0.39,0.39l0.39,0.39v0.39l0.39,0.39h0.39h0.39h0.77h0.39l1.16-0.39h0.39h1.16h0.77h0.39h0.39v-0.39v-0.39
	l-0.39-0.39l0.39-0.39h0.77h0.39l0.39,0.39l0.39,0.39v0.39l0.39,0.39v0.39l0.39,0.39h0.39v0.39l0.39,0.39h0.39l0.39-0.39v-0.39
	l0.39-0.39l0.77-0.39h0.39l0.39-0.77v-0.39h-0.39v-0.77h0.39l-0.39-0.39h-0.39v-0.39v-0.39v-0.39l-0.77-0.77h-0.39h-0.39v-0.39
	l0.39-0.39h0.39l-0.77-0.39l0.77-1.16h0.39v0.39h0.77h0.39l0.77-0.39h0.39l0.39-0.39l0.39-0.39l0.39,0.39l0.39-0.39l0.39-0.39h0.39
	l-0.39-0.39l0.39-0.39l0.39-0.39l0.39,0.39l0.77,0.77h0.39h0.39l1.55,0.39h1.16l0.39,0.39v-0.77v-0.39v-0.39v-0.39l-0.77-0.39h-0.39
	v-0.39v-0.39l-0.39-0.77l-0.39-0.39h-0.77h-0.39l0.39-0.39v-0.39h0.39l0.39,0.39l1.55-0.77l0.39,0.39h0.39l0.39,0.39l0.77,0.39v0.39
	h-0.77l0.39,0.39l0.39,0.39l0.39,0.39l0.77,0.39h0.77v-0.39h0.77l0.39,0.39h0.39v-0.39h0.39v-0.39l0.39,0.39l1.16,0.39v0.39
	l0.39,0.77v0.39l0.77-0.39h0.77h0.39l0.39,0.39h0.39l0.39,0.39v0.39v0.39h0.39h0.39h0.39l0.77,0.39h0.39l-0.39-0.77l0.39,0.39
	l-0.39-0.77v-0.39l0.39-0.39h-0.39v-0.39h-0.39l-0.39-0.39v-0.39v-0.77l0.77,0.39h0.39l0.39,0.39h0.39v0.39h0.39h0.39l0.39-0.39
	l0.39,0.77h0.39l0.39,0.39l0.39-0.39l1.16-0.39v-0.39v-0.39h0.39l0.39-0.39h0.39h0.39l0.39-0.39v-0.39h0.39l0.39-0.39v0.39h0.39
	l0.39-0.39l0.77-0.39l1.94-0.77h0.39h0.39v-0.39l0.77-0.39l0.77-0.39h0.39l0.39-0.39v0.39h0.39h0.39v0.39l0.39,0.39l0.77,0.77
	l0.77-0.39v-0.39h0.39l0.39-0.39h0.39v-0.39l0.39-0.39h0.39l0.77-1.16l0.39-0.39v-0.39v-0.39v-1.16l0.77-0.39h0.77l0.39-0.77
	l-0.39-0.39v-0.77v-0.39l-1.16-0.39h0.39l-2.32-1.55l-0.39-0.39l-0.39-0.77l-1.94-0.77h-1.55v-0.39v-0.77v-0.39l0.39-0.39v-0.39
	v-0.39h1.16l0.77-0.39l0.77-0.39v-0.39v-0.39v-0.39h0.39v-0.39l0.39-1.55h-2.32H175l-0.77-0.39l-0.77-0.39h-0.39h-0.77l0.77-1.16
	v-1.16v-0.39v-0.39l-1.16-0.77h-0.39l-0.39,0.77v-0.39l-0.39-0.39l-0.39,0.39l-0.39,0.39v0.39l-0.39-0.39l-0.39-0.39l0.39-0.39
	l-0.77-0.39h-0.39l-1.55,0.39l-1.94-0.39h-0.39l-0.77,0.39l-0.39-0.39h-0.39v-0.39l-0.39-0.39v-0.77h-0.77v-0.39h-0.39v-0.77
	l-1.16-0.77l-0.39-0.77v-0.39v-0.39h-0.39h-0.77h-0.39h-0.39v-0.39l-0.39,0.39h-0.39h-0.77l-0.39,0.39h-0.39v0.77h-0.77v0.39h-1.16
	v-0.39h-0.39h-0.39h-0.39l-0.39,0.39l-0.39-0.39h-0.39h-0.77h-0.39h-0.39h-0.39v0.39l-0.39-0.39h-0.39h-0.77v-0.39h-0.39l-0.77,0.39
	v0.39l0.39,0.39l-0.39,0.39v-0.39v-0.39h-0.39h-0.39l-0.39-0.77v-0.39l0.39-0.39h0.39v-0.39h-0.39h-0.39h-0.39l-0.39-0.39v-0.39
	v-0.39v-0.39l-0.39-0.39l-0.39-0.39v-1.16h-0.39v-0.39v-0.39h-0.39h-0.39h-0.39v-1.16v-0.39h-0.39h-0.39v-0.39h0.39v-0.77v-0.77
	v-0.77h0.39l0.39-0.39h0.39l-0.39-0.39h-0.39l-0.39-0.39v-0.39h0.39v-0.39h0.77l0.77-0.39h0.39v-0.39h0.39v-0.77v-0.39v-0.39h-0.39
	l-0.39-0.39v-0.77v-0.39l0.39-0.39v-0.77l-0.39-0.39l-0.39-0.39v-0.77l-0.39-1.16v-0.39l-0.39-0.39l-1.16-0.39l-0.39-0.39V90v-0.39
	l-0.39-0.39l-0.39-0.39h-0.39l-0.39-0.39l-0.39,0.39h-0.39h-0.39l-0.39,0.39L137.43,90l-0.77,0.77l-0.39,0.39l-0.39-0.39v-0.39
	l-0.39,0.39l-0.39,0.39l-0.77,0.39v-0.77l-0.77-1.16l-0.39-0.77l-0.77-1.16L132.01,87.28z M119.23,101.23l-0.77-0.39l0.39,0.39
	H119.23z"/>
<path id="path261" class="st0" d="M124.65,80.7h0.39h0.39l0,0l0.39,0.39l-0.39,0.39l0,0h-0.39l0,0l0,0v0.39l0,0l0,0l-0.39-0.39l0,0
	v-0.39h-0.39V80.7H124.65L124.65,80.7z"/>
<path id="path267" class="st0" d="M87.47,105.88v0.39h-0.39v0.39v0.39l-0.77-0.39v0.39l-0.77,0.39v0.39h-0.39h-0.39h-0.39
	l-0.77-0.39l-0.39,0.39v0.39l0.39,0.39l-0.39,0.39l-0.39,0.39v0.39h-0.39h-0.39v0.39l-0.39-0.39h-0.39h-0.39l-0.39,0.39l-0.77,0.39
	v0.39h-0.39l-0.39,0.39h-0.39v0.39h-0.39l-0.39,0.39H77.4h-0.39h-0.39v0.39l0.39,0.39v0.77v0.39h0.39v0.39l0.39,0.39h0.39v0.39
	l0.39,0.39l0.39,0.39h0.77l0.39,0.39l1.55,1.16l-1.16,0.39v1.55h-0.39h-0.39h-0.77h-0.39v-0.39h-0.77l-0.39,0.39l-0.39,0.39h0.39
	l-0.39,0.39v0.39h-0.39h-0.39v0.39l1.55,0.77l0.39,0.39h-0.39v1.16l0.39,1.16v0.39h0.39l-0.39,0.39h0.77h1.55l-0.39,0.39l-0.39,0.39
	h-0.39l-1.16,0.77l-0.39,1.16l-0.39,0.39h-0.39v0.39l-0.39,0.39l0.39,0.77h0.39l0.39-0.39h0.39h0.39h0.39h0.39l0.39,1.16h-0.39
	l-1.55,0.39l0.39,0.39l0.39,0.77l0.39,0.77l0.39,0.39l0.39,0.39l0.39,0.39v0.39l0.39,0.39v0.77v0.39h0.39h0.77h0.39l0.39-0.39h0.39
	v-0.39h0.39l-0.01-0.41l0.3,0.3l0.4,1.6l0.2-0.3l0.2-0.2l0.4,1.5l0.4,0.2v0.3l0.4,0.2v1l1.1-0.5v0.6l0.1,0.5v0.7l-0.1,0.3l0.1,0.3
	l1.4-0.7l-0.1,0.9l0.1,0.3l0.2,0.6l-0.06,0.56l1.16-0.39l0.39,0.39h0.39v-0.39l-0.39-0.39v-0.39v-0.39h0.39h0.39h0.39l0.39-0.39
	v-0.77h0.39h0.77h0.39v-0.39l0.39-0.39l0.39-1.16v-0.39h0.39l0.39-0.77l0.39-0.39h-0.39l0.39-0.39l0.77-0.77l0.39-1.16l0.39-0.77
	l0.39,0.39l0.39,0.39h0.39h0.39l0.39-0.39l0.39-0.39V133h0.39h0.39l0.77,0.39l0.77,0.77h0.39h1.16l0.39,0.39l0.39,0.39h0.39
	l0.39-0.39h0.39v-0.39l0.39-0.39h0.39l0.39-0.39l0.77,0.39h0.39l0.39-0.39h0.39l0.77-0.39h0.39l0.39-0.39l0.39-0.39h0.39l0.39,0.39
	h1.16h0.39h0.39l0.39,0.39l0.77,0.39h0.39l0.39,0.39h0.39h0.39l0.39,0.77l0.77,0.39l1.16,0.39l0.77,0.39l0.77-0.39l0.39-0.39v-0.39
	v-0.39l-0.39-0.39l0.39-0.39l-0.39-0.39v-0.39l-0.39-0.77v-0.39h-0.39l-0.39-0.39l-0.39-0.39v-0.39v-0.39v-0.39v-1.16l-1.16-0.77
	h0.39v-0.39h-0.77v-1.94v-0.39l0.39-0.39l-0.39-0.39v-0.39v-0.39v-0.39l-0.39-0.77l-1.16,0.39l0.39,0.39v0.39v0.39h-0.39v0.39
	l-0.39,0.39h-0.39l-0.39,0.39l-0.39,0.39h-0.39h-0.39l-0.77-0.39l-0.39-0.39v-0.39h0.39l0.39-0.39l0.39-0.39v-0.39v-0.77l0.39-0.39
	v-0.39h0.39h0.39v-0.39h-0.39v-0.39v-0.39h0.77v-0.39v-0.39h-0.77v-0.77h-0.39h-0.39v-0.39v-0.39l-0.39-0.39h0.39v-0.39h-1.94
	l-0.39-0.39v-1.16v-0.39v-0.39v-0.39v-0.39l-1.55-1.16v0.39l-0.77-0.39v-0.39l0.39-1.94l-0.39-0.39l-0.39-0.39l-0.39-0.39h-0.39
	v-0.39l-0.39-0.39h-0.39h-0.39h-0.39l-0.39-0.39h-0.77l-0.39-0.39h-1.55l-0.77-0.39l-1.16,2.32v0.39v0.39l-0.39,0.77l-0.39,1.16
	l-0.39,0.77v0.77l-0.39,0.39v0.39l-0.77,1.55h-0.77h-0.39H95.6l-2.32-0.39h-0.39l-1.94,0.77l-1.55,0.39v-1.55h-0.39v-0.77v-0.39
	h-0.39l-0.39-0.39h0.77v-0.39v-0.39v-0.77v-0.77h0.39l0.77-0.39l-0.77-0.39v-0.77v-0.39h-0.39v0.39l-0.39-0.39l-0.39-1.16v-0.39
	h0.39h0.39v-0.39h0.39h0.39v-0.39h0.39h0.39l-0.39-0.39h-0.39l-0.39,0.39h-0.39l-0.39-0.39l-0.39,0.39v-1.55h-0.39H87.47z"/>
<path id="path325" class="st0" d="M73.91,50.47l-0.77,1.16v0.39v0.39v0.77l-0.39,1.16v1.16v1.55l-0.77,2.32l-0.39,2.32l-0.77,2.32
	v0.77h-0.39v0.77l-0.77,1.55v0.77l-0.77,2.32v0.39v0.39v0.39v0.39v1.16l-0.39,1.55v0.77v0.77L68.1,77.6v0.77v0.39v0.77l-0.39,0.39
	v0.39l-0.39,2.71l-0.39,3.49l-0.39,1.94l-0.39,0.77L65.78,90l-0.39,0.77L65,91.93l0.77-0.39h0.39l0.77-0.39l0.39,0.39h-0.39v0.39
	h-0.77l-0.39,0.39h0.77v0.39l-0.77-0.39h-0.39v0.39l-0.77-0.39v0.77L65,93.87l-0.39,0.39v0.77l-0.39,0.77l-0.39,1.55l-0.39,1.16
	l-0.77,1.94l-1.55,3.1l2.71,1.16l1.16,0.39v-0.77l0.39,0.39l0.39-0.39h0.39h0.39l0.77,0.39l-0.39,0.77l-0.39,0.39v0.77h-0.39v0.39
	v0.39l-0.39,0.39l-0.39,0.39L65,108.59v0.39v0.39v0.39v0.77l-0.39,0.39v0.39h-0.39v0.39v0.39v0.39h0.39l0.39,0.39h0.39l0.39-0.39
	l0.77,0.39h1.16h0.39h0.39l0.39-0.39l0.77-0.39h0.39v-0.39l0.39,0.39h0.39h0.39l0.39-0.39l0.39-0.39l1.16,0.39l-0.39,1.16l0.39,0.39
	l0.39,0.39l0.39-0.77h0.39h0.77l0.39-0.39v-0.39h0.39h0.39h0.39h0.39h0.39h0.39l0.39-0.39h0.39v-0.39h0.39l0.39-0.39h0.39v-0.39
	l0.77-0.39l0.39-0.39h0.39h0.39l0.39,0.39v-0.39h0.39h0.39v-0.39l0.39-0.39l0.39-0.39l-0.39-0.39v-0.39l0.39-0.39l0.77,0.39h0.39
	h0.39h0.39v-0.39l0.77-0.39v-0.39l0.77,0.39v-0.39v-0.39h0.39v-0.39h0.39h0.39v1.55l0.39-0.39l0.39,0.39h0.39l0.39-0.39h0.39
	l0.39,0.39h-0.39h-0.39v0.39H89.4h-0.39v0.39h-0.39h-0.39v0.39l0.39,1.16l0.39,0.39v-0.39h0.39v0.39v0.77l0.77,0.39l-0.77,0.39
	h-0.39v0.77v0.77v0.39v0.39h-0.77l0.39,0.39h0.39v0.39v0.77h0.39v1.55l1.55-0.39l1.94-0.77h0.39l2.32,0.39h0.39h0.39h0.77l1.16-2.32
	v-0.77l0.39-0.77l0.39-1.16l0.39-0.77v-0.39v-0.39l1.16-2.32l0.77,0.39h1.55l-0.77-0.77v-0.39l0.39-0.39h-0.39h-0.39l-0.39-0.39
	h-0.39l-0.39-0.39h-0.39v-0.39l-0.39-0.39l-0.39,0.39h-0.39H98.7h-1.55l-0.39,0.39h-0.39l-0.39,0.39H95.6v-0.39h-0.39l-0.39-0.39
	l-0.39-0.39l-0.39-0.77h-0.39v-0.39h-0.77H92.5l-0.39-0.77h-1.16h-0.39h-0.39l-0.77,0.39l-0.39-0.39v0.39h-0.39v-0.39h0.39v-0.39
	l-0.39-0.39h-0.39l-0.39,0.39h-0.39h-0.39v-0.39h0.39v-0.39v-0.39l-0.77-0.39H86.3v0.39h-0.39l-0.39-0.39h-0.39v-0.39h0.39h0.39
	l0.39-0.39l-1.16-0.77v-0.39l0.77,0.39l0.39,0.39h0.39l0.39-0.39v0.39l0.39,0.39l0.39-0.39v-0.39v-0.39h0.39l0.39-0.39v-0.77
	l0.39-0.39l0.39-0.39l0.39-0.39h0.39h0.39v-0.39l0.39-0.39v-0.39l0.77-0.77h-0.39h-0.39l-0.39-0.39v0.39l-0.77-0.39v-0.39v-0.39
	v-0.39l0.39-0.39v-0.39h-0.39l-0.39,0.39l-0.39-0.39l0.77-0.39h0.77v-0.39l-0.39-0.39v-0.39v-0.39L90.56,90l0.39,0.39V90l0.39-0.39
	l0.39-0.77h-0.39v-0.77h-0.39v-0.39l-0.39-0.39V86.9l-0.39-0.77v-0.39l-0.77-1.16v-0.39l-0.39-0.39v-0.77l-0.39-0.77v-0.39
	l-0.39-0.39l0.39-0.39l-0.39-0.39v-0.39v-0.39v-0.39v-0.77v-0.39h0.39v-0.39h0.39l0.39-0.39h0.39h0.39v0.39l0.39,0.39v-0.39
	l0.39-0.39h0.39h0.39h0.39l0.39,0.39l0.39,0.39h0.39l0.39,0.39v0.39h0.77h0.39h0.39l0.39-0.39l0.77-0.77h0.39h0.77V77.6l0.39-0.39
	h0.39v-0.39l0.77-0.39v-0.39l0.39-0.39v-0.77V74.5l0.39-0.77h0.39h0.39h0.39l0.39-0.39h0.39l-0.39-0.39h0.39l0.39-0.39l0.39-0.39
	l-0.39-0.39l-0.39-0.39v-0.39v-0.39v-0.39v-0.39v-0.39v-0.39h-0.39l-0.39-0.39l-0.77-0.39h-1.16H98.7l-0.39-0.39h-0.77h-0.39
	l-0.39,0.77l-0.39,0.39v0.39l-0.39-0.39H95.6h-0.39h-0.39l-0.77-0.77l-0.39-0.39l-0.39-0.39l0.39-0.77h-0.39l-0.39-0.39H92.5
	l0.77-5.81l-0.77-1.16l-1.16-2.32v-0.39l-0.39-0.39l-1.16-2.32H89.4v-0.77l-0.39-0.39h-0.39l-0.39,0.39h-0.39l-0.39-0.39h-0.39
	l-0.39,0.39h-0.77l-0.77,0.77v0.39l-0.77,1.16h-0.39l-0.77,0.39l-0.39,0.39l-1.55,0.77l-0.39-0.39l-1.16-0.77h-0.39l-1.16-0.77
	l-0.39-0.39l-0.39-0.39l-0.39-0.77V52.8v-0.77l0.39-0.77v-0.39h-0.39v0.39h-0.39h-0.39v-0.39v-0.39h-0.77h-0.77H74.3H73.91z
	 M77.4,50.86v-0.39h-0.39L77.4,50.86z M89.4,53.19l0.39,0.39V52.8H89.4V53.19z M85.92,100.46v0.39h0.39L85.92,100.46z M92.5,91.93
	v0.39v0.39l-0.39,0.77h0.39l0.39-0.39h0.39l0.39-0.39h0.39v-0.39l-0.77,0.39l-0.39-0.39L92.5,91.93z M102.96,105.49v0.39h0.39
	L102.96,105.49z"/>
<path id="path415" class="st0" d="M71.97,49.7l-0.77,0.39l0,0l0,0l0,0l-0.39,0.39h-0.39v0.39l0,0h-0.39l0,0l-0.39-0.39l0,0v-0.39
	V49.7v-0.39h0.39l0,0l0,0l0,0h0.39h0.39l1.16-0.39l0,0h0.77v0.39l0,0L71.97,49.7z"/>
<path id="path417" class="st0" d="M80.49,43.89l-0.77,0.77l-0.39,0.39h-0.39h-0.39h-0.39l-1.16,1.55v0.39l0,0v0.39h-0.39h-0.39
	l-0.39-0.39l-0.77-0.39h-0.39l0.39,0.39l0.39,0.39l0,0l0.39,0.39h0.39h-0.77l0,0v0.39l0,0l0,0h-0.77H74.3h0.39l-0.39,0.39h-0.39
	l-0.39,0.39h-0.39v-0.39v-0.77l-0.39-1.55v-0.77v-0.39l0.39-1.16V43.5l0,0l0.39-1.16l0.39-1.16l0.39-1.16l0.39-0.39l0.77-1.16
	l0.77-1.55l1.16-1.16l0,0l0,0v0.39v0.39l0.39-0.39l0,0l0,0l0.39-0.39l0,0l0.39-0.39h0.39v0.39v-0.39l0,0h-0.39v-0.39l-0.39,0.39l0,0
	l-0.77,0.39l0,0l1.16-2.32l0.39-0.39l0.77-0.39v-0.39h0.39h0.39l0,0l0.39,0.39l0.39,0.39v0.39v0.39h0.39h-0.39l0,0v0.39l0.39,0.39
	l0,0l0.39,0.39l0.77,1.16v0.39l0,0l0,0l0,0l-0.39,0.39v2.32v1.16v0.39l-0.39,0.77h-0.39l-0.39,0.39l0,0l0,0v0.77l-0.77,0.77V43.89z"
	/>
<path id="path433" class="st0" d="M95.99,47.76L95.99,47.76l-5.42,4.65l-0.39,0.39h-0.39v-0.39h0.77L95.99,47.76z"/>
<path id="path449" class="st0" d="M61.13,103.56l-2.32,5.04l-0.77,1.16l-0.39,0.77l-1.16,1.94l-0.39,0.39v0.39l-0.77,1.16
	l-0.39,0.77l-1.16,1.55l-2.32,3.1l-1.16,0.77v0.39l-0.77,0.77h-0.39v0.39v0.39h0.39l-0.39,0.39v-0.39h-0.39l-0.39,0.39l-0.39,0.77
	l-0.39,0.39l-1.16,1.16l-0.77,0.77l-1.16,1.55l-0.39,0.39l-0.77,0.77l-0.39,0.39v0.39l-0.77,1.16l-0.77,0.39l-0.77,0.77h-0.39
	l-0.39-0.39l-1.94-0.39l-0.39,0.39h-0.39h-0.39l-0.39,0.39v0.39l-0.39,0.39l-0.39,0.77l0.39,0.39l0.39,0.39v0.39l-0.77,0.77
	l-0.39,0.77l-0.77,1.16h0.39h0.39l0.39,0.39l0.39-0.39l1.55-0.39h0.39l0.39,0.77h-0.39v0.39l-0.77,0.77v0.39l-0.39,0.39v0.39
	l0.39,0.39l1.55,2.32v0.39v0.39l-0.39,0.39l0.77-0.39l0.39,0.39l0.39,0.39l0.39,0.39v0.39h0.39h0.39h0.39h0.39l-0.39,0.39l0.39,0.39
	h0.39v-0.39h0.39h0.39h0.39l0.39,0.39l0.77,1.16h0.39h0.39h0.39v0.39h0.77l0.39,0.77l0.39,0.39h0.39h0.39l-0.39,0.39h-0.39
	l0.39,0.77l0.39,0.39l1.16,0.39v0.39h0.77l0.77,0.39h0.77v0.39l1.55,0.39l0.77,0.77h0.39l0.77,0.39l1.16,0.77h0.39l0.39,0.39h0.77
	v0.39h1.55h0.39l0.77,0.39h0.39h0.39l0.39,0.39h0.39l0.39,0.39h0.39l0.77-0.39h0.39l1.16-0.39h0.39l0.39-0.39h0.77l0.39-0.77
	l0.39,0.39h0.39l0.77-0.39v0.39l1.55-0.39l0.39-0.39l0.39-0.39l0.77-0.39l1.16-0.77l0.39-0.77l0.39-0.39l0.39-1.16l0.39-0.39
	l0.39-0.39v-0.39l0.39-0.39h0.39l0.77-0.39h0.77h0.77h0.77h0.39l0.77-0.39h0.39l0.77-1.16h0.39l0.77-0.39l0.39-0.39h0.77h0.39h0.39
	l0.77,0.39h0.77h0.39l0.39,0.39h0.77h0.39h0.77v-0.39l0.39-1.55h-0.77h-0.39h-0.39l-0.39-0.39h0.39l-0.39-0.39v-0.39v-0.39
	l0.39,0.39l0.77-0.39l0.39,0.39l0.06-0.56l-0.2-0.6l-0.1-0.3l0.1-0.9l-1.4,0.7l-0.1-0.3l0.1-0.3v-0.7l-0.1-0.5v-0.6l-1.1,0.5v-1
	l-0.4-0.2v-0.3l-0.4-0.2l-0.4-1.5l-0.2,0.2l-0.2,0.3l-0.4-1.6l-0.3-0.3l0.01,0.41h-0.39v0.39h-0.39l-0.39,0.39h-0.39h-0.77h-0.39
	v-0.39v-0.77l-0.39-0.39v-0.39l-0.39-0.39l-0.39-0.39L78.94,133l-0.39-0.77l-0.39-0.77l-0.39-0.39l1.55-0.39h0.39l-0.39-1.16h-0.39
	h-0.39h-0.39h-0.39l-0.39,0.39h-0.39l-0.39-0.77l0.39-0.39v-0.39h0.39l0.39-0.39l0.39-1.16l1.16-0.77h0.39l0.39-0.39l0.39-0.39
	h-1.55h-0.77l0.39-0.39h-0.39v-0.39l-0.39-1.16v-1.16h0.39l-0.39-0.39l-1.55-0.77v-0.39h0.39h0.39v-0.39l0.39-0.39h-0.39l0.39-0.39
	l0.39-0.39h0.77v0.39h0.39h0.77h0.39h0.39v-1.55l1.16-0.39l-1.55-1.16l-0.39-0.39h-0.77l-0.39-0.39l-0.39-0.39v-0.39h-0.39
	l-0.39-0.39v-0.39h-0.39v-0.39v-0.77l-0.39-0.39v-0.39h-0.39h-0.39h-0.39v0.39l-0.39,0.39H74.3h-0.39l-0.39,0.77l-0.39-0.39
	l-0.39-0.39l0.39-1.16l-1.16-0.39l-0.39,0.39l-0.39,0.39h-0.39h-0.39l-0.39-0.39v0.39h-0.39l-0.77,0.39l-0.39,0.39H68.1h-0.39h-1.16
	l-0.77-0.39l-0.39,0.39H65l-0.39-0.39h-0.39v-0.39v-0.39v-0.39h0.39v-0.39l0.39-0.39v-0.77v-0.39v-0.39v-0.39l0.39-0.39l0.39-0.39
	l0.39-0.39v-0.39v-0.39h0.39v-0.77l0.39-0.39l0.39-0.77l-0.77-0.39h-0.39h-0.39l-0.39,0.39L65,104.33v0.77l-1.16-0.39L61.13,103.56z
	 M38.28,143.85l-0.39,0.39h0.39V143.85z"/>
<path id="path479" class="st0" d="M35.57,143.08l-0.77,0.39h0.77V143.08z M35.57,143.46l-1.16,0.39h-0.39h-0.39l0.77-0.39
	l-1.16,0.39l-2.32,0.77l-0.77,0.39h-0.39l-1.16,0.39h-0.39l-0.39,0.77v0.39v0.39l0.39,1.16v0.39h0.39v0.39h0.39l0.77-0.39v-0.39
	h-0.39v-0.39h0.39h0.39h0.39l0.39-0.39h0.39h0.39h0.39l0.39-0.39l0.39-0.39l0.77,0.39h0.77l0.77,0.39v0.39l0.39,0.39l0.39,0.77h0.39
	v0.77v0.39h-0.39v0.39h0.39l-0.39,0.39v0.39l0.39,0.77h0.39v0.39l0.39,0.39v0.39l0.39,0.77v0.77h0.39h0.39l0.39,0.39l0.39-0.39v0.39
	h0.77h0.77h0.39h0.39l0.39,0.39l1.16,0.39l0.39,0.77l0.39,0.39h0.77h0.39v0.39h0.77l0.39,0.39h0.39v0.39v0.39l0.77,0.39l0.39,0.39
	h1.16h0.39h0.39l0.77-0.39h0.77h0.39l1.16-0.39l0.77-0.39l0.39-0.39l0.39-0.77v-0.39h-0.39v-0.39h0.39h0.39h0.39h0.39l0.77-0.39
	h-0.39v-0.39v-0.39h-0.39l-0.39,0.39h-0.77h-0.77h-0.77h-0.39h-0.77l-0.77-1.16H49.9l-0.39-0.39h-0.39l-0.39-0.39v-0.39l-0.77-0.39
	v-0.39v-0.39h-0.39l-1.16-1.16l-1.16-1.16h-0.39v-0.39h-0.77l-0.39-0.39h-0.39l-0.77-0.77l-0.77-0.39h-0.39l-1.55-0.77l-0.39-0.39
	l-1.16-0.39v-0.39l-0.39-0.39H37.5v0.39l-0.39-0.39h0.39v-0.39v-0.39h-0.39v0.39h-0.39v-0.39l-0.77-0.39v-0.39L35.57,143.46z
	 M28.21,148.89l-0.39,0.77l-0.39,0.39l-0.77,0.39h0.39l0.77,0.39l0.39,0.39h0.39v-0.39l-0.39-0.39l-0.39-0.39L28.21,148.89z"/>
<path id="path483" class="st0" d="M32.85,148.89l0.39,0.39l0,0L32.85,148.89h-0.77l-0.77,0.39l-0.77,0.39h-0.39v-0.39l0,0l0.77-0.39
	v-0.39l0.39-0.39l0.39-0.39v0.39h0.39L32.85,148.89L32.85,148.89z"/>
<path id="path547" class="st0" d="M50.67,151.6l0.77,0.39l1.16,0.39l0.77,0.39l0,0l0.39,0.39h-0.39l0,0l-0.77,0.39h-1.16h-0.39
	l-0.39-0.39l-0.39-0.39l0,0H49.9l-0.77-0.77h-0.39l-0.39-0.39l0,0l0,0l0.39-0.39l0,0h0.77L50.67,151.6z"/>
<path id="path619" class="st0" d="M40.99,159.35v0.39l-0.77,0.77h-0.39l0.39,0.77h0.39l0.39,0.77l0.39,0.77h0.77h0.77h0.39h0.39
	v-0.39h0.39v0.39v0.39l-0.39,0.39h-0.39h-0.39h-0.39h-0.39h-0.39L41.37,164h-0.39l-0.77-0.77l-1.55-0.39h-0.39l-0.77,0.39
	l-0.39,0.39h-0.39L35.95,164l-0.39,0.39L35.18,164l-0.77,0.39l-0.39,0.39v0.77h0.39v0.39h0.39h0.39l0.39,0.39l0.39,0.39h0.39v0.39
	v0.39l0.39,0.39h0.39l0.39,0.39l0.39,0.39v0.77l0.39,0.39h0.39v0.39h0.39h0.39h1.55h0.39h0.39l0.39,0.39h0.39v-0.39l0.77,0.39
	l0.77,0.39l-0.39,0.39v0.39v0.39h0.39l1.55,0.77l0.39,0.39v2.32v0.39l0.39,1.55h-0.39h-0.39h-0.39l-0.39-0.39h-0.39h-0.39H43.7
	l-0.39,0.39h-0.39l-0.39,0.39h-0.39h-0.39h-0.39v-0.39h-0.39l-1.16-0.77h-0.39l-0.39-1.16h-0.39l-0.77-1.16v-0.39l-0.39-0.39
	l0.39-0.39l-0.39-0.39v-0.39v-0.39h-0.39l-0.39-0.39l-0.77-0.77l-0.39-0.39h-0.39h-0.39l-0.39-0.39h-0.39l-0.77-0.39h-0.39
	l-0.39-0.39l-0.39,0.39h-0.39v0.39l-0.77-1.16h0.39l-0.39-0.39v-0.39h-0.39h-0.39h-0.39l-0.39,0.39h-0.39h-0.39h-0.77h-0.39h-0.39
	h-0.39v-0.39l-0.39-0.39h-0.77l-0.77,0.39h-0.39l-0.39,0.39l-1.16-0.39H22.4l-0.39-0.39l-0.39,0.39l-0.77,0.39v0.39l-0.39,0.39v0.39
	l-0.39,0.39h-0.39l-0.39,0.39h0.39h0.39l-0.77,0.39v-0.39l-0.77-0.77l-0.39-0.39v-0.39l-0.39-1.16v-0.39h-0.39l-0.39-0.39
	l-0.77-0.39l-0.39-0.39l-0.39-0.39v-0.39v-0.77l0.39-0.39h-0.39h-0.39L14.65,164h-1.16H13.1h-0.39h-0.77v0.39h-0.39h-0.39
	l-0.39,0.39L10,165.16l-0.39,0.39l-0.77,0.39H8.45l-0.39,0.39l-0.39,0.39L6.9,167.1l-0.39,0.39H6.13l-0.39,0.39l-0.39,0.39v0.39
	v0.39v0.39l0.39,0.77h0.39l0.39,0.39l0.39,0.39l0.77,0.39v0.39h0.39l0.39,0.39l0.39,0.39v0.39l0.39,0.39v0.39l0.39,0.39v0.39
	l0.39,0.39l0.39,0.39l0.77,0.39v0.39h0.39l0.39,0.39v0.39h0.39h0.77h0.39v-0.39v-0.77h0.39v0.77l0.39,0.39h0.39h0.77l0.39-0.39
	v-0.39h0.39h0.77h0.39l-0.77-0.39l0.39-0.39l0.77-0.39h0.39v0.39l1.16-0.77v-0.39v-0.39l0.39,0.39v0.39h0.39l-0.39,0.39v0.77h0.39
	l-0.39,0.39l0.39,0.39v0.39l-0.39-0.39l-0.39,0.39h-0.39l0.39,0.39l0.39,0.39v0.39h0.39v0.77v0.39h0.39l0.39,0.39h0.39v-0.39h0.39
	l0.77,0.39h0.39v0.39l0.77,0.39v0.39h0.39l0.77,0.77h0.39h0.77l0.77-0.39h0.39l0.39-0.39h0.77h0.39l0.39,0.39l0.39-0.39l0.39-1.55
	h0.39v-0.39v-0.39h0.39v-0.77v-0.39v-0.39v-0.39v-0.39l0.77,0.39l0.77-0.39h0.39l0.77-0.77l0.39,0.39l0.39,0.39l0.39,0.39v0.39h0.39
	v0.39h0.39h0.39l0.39,0.39l0.39,0.39h0.77v0.39v0.77l0.77,0.39h0.39l0.39,0.39h0.39l0.77,0.39l0.77,0.39h0.77l0.39,0.39h0.77
	l1.16-0.39l0.77-0.39h0.39h0.39v0.39h0.39h0.39l0.77,0.39l0.39,1.16v0.77h1.16l0.77-0.39l-0.39-0.39h-0.39v-0.39l0.39-1.16
	l-0.39-1.16v-0.39l0.77-0.39l-0.77-1.16l-1.55-4.26l-0.77-1.55v-0.39l0.39-0.77l0.39-1.16l0.39-0.77v-0.39l-0.39-0.39v-0.77
	l-1.55-1.94l-0.39-0.39v-0.39v-0.77v-0.39l0.39-0.77l0.39-0.39l0.39-0.39l1.16-0.39H46.8l-0.77-0.39h-0.77h-0.39h-0.39l-0.77-0.39
	l-1.16-0.77h-0.39L40.99,159.35z M18.91,176.79l0.39-0.77l-0.39,0.39V176.79z"/>
<path id="path625" class="st0" d="M43.31,183.37v0.39h0.39v0.39h-0.39v0.39h0.39h-0.39h-0.39l-0.39-0.39v-0.39v-0.39l0,0l0,0h0.39
	H43.31z"/>
<path id="path627" class="st0" d="M31.3,183.37h0.39l0.39-0.39v0.39l0,0l0,0H31.3z"/>
<path id="path629" class="st0" d="M42.15,184.54L42.15,184.54v0.39l0,0v0.39l0,0h-0.39l0,0h-0.39v-0.39h-0.39l0,0h0.39h0.39
	l-0.39-0.39h0.39l0,0h-0.39l-0.39,0.39v-0.39l0,0h0.39l0,0h-0.39l0.39-0.39l0,0h-0.39l0,0H40.6l0,0v-0.39v0.39h-0.39v-0.39h0.77
	h0.39l0,0l0.39,0.39l0,0L42.15,184.54z"/>
<path id="path631" class="st0" d="M8.45,179.5v0.39H8.07H7.68l-0.77,0.39H6.52H6.13l-0.39,0.39H5.35H4.97H4.58H4.19H3.81v0.39H3.42
	l-0.39,0.39H2.64H2.26l-0.39,0.39H1.48v0.39l0.39,0.39v0.77v0.39v0.39l0.39,0.39v0.77l-1.16,1.16l-0.39,0.39l0.39,0.39l0.77,0.77
	H1.48H1.09v0.39l0.39,0.39l0.39,0.39v0.39l-0.39,0.39l0.39,0.39h0.39l0.39,0.77h0.39l0.39,0.77l0.39-0.39l0.39,0.39v0.39v0.39h0.39
	l0.39,0.39h0.39h1.16l3.1-0.39l-0.39-2.71l-0.39-0.39l0.77-0.39l0.39,0.39h0.39v-0.39h0.39h0.39v-0.39h0.39l0.39,0.39l0.39,0.39
	l0.39-0.39l-0.39-0.77l0.77-0.39l0.39,0.39l0.77,0.39l0.39,0.39l0.77,0.39h0.39v-0.39h0.77l0.77,0.77h0.39l0.39,0.39v0.39h1.16
	l0.39,0.39v-0.39l1.55,0.39h0.39l0.39,0.77h0.39v-0.39l0.39,0.39l0.39,0.39h0.39v0.39l-0.39,0.39v0.77V195v0.77l0.39,0.39h0.39
	v-0.39l0.39,0.39h0.39h0.39h0.39h0.39h0.39h0.39h0.39l0.77-0.77h0.39h0.39v0.77h-0.39l-0.39,0.39l0.39,0.39h0.39h0.39l0.77-0.39
	h0.39l-0.39-0.77l0.77-0.39l0.39,0.77h0.39v-0.39h0.39h0.39l0.39-0.39V195h0.77l0.39-0.77h0.39l0.39-0.39l0.77-0.39h0.39v0.39h0.39
	l0.39-0.39v0.39h0.77l0.39-0.39h0.39l0.39-0.39l0.77-0.77l0.77-0.39l0.77-0.39l1.94-1.55l0.39-0.39l3.87-4.65h-0.39v-0.39h-0.39
	v-0.39v-0.39l-0.39,0.39v-0.39v-0.39l-0.39-0.39h-0.39h-0.39l0.39-0.39h-0.39h-0.39v0.39l-0.39,0.39v0.39l0.39,0.39h0.39v0.39v0.39
	l-0.39-0.39l-0.39,0.39h0.39l-0.39,0.39h0.39v0.39l-0.39-0.39h-0.77l0.39,0.39v0.39l-0.39-0.77l-0.39-0.39h-0.39l0.39,0.39
	l0.39,0.39h-0.39v-0.39h-0.39h-0.39h-0.39v0.39h0.39v0.39h-0.39l-0.77-1.55h-0.39l-1.16-0.77v-0.39h-0.39v0.39l-1.55-0.39
	l-0.39-0.39v-0.39l-0.39-0.39v-0.39l-0.39-0.39l0.39-0.39h-0.39l-0.39-0.39v-0.39h-0.77H34.4l-0.39-0.39h-0.77l-0.39,0.77v0.39
	h-0.39v0.77v0.39v0.39v0.39l-0.39,0.39H31.3l-1.16,0.39l-0.77,0.39l-0.39,0.39h-0.39v0.39h-0.77v0.39l-0.39,0.39h-0.39h-0.77h-0.39
	l-0.39-0.39h-0.39v0.39l-0.39-0.39v0.39v0.39l-0.39-0.77v-0.39h-0.39h-0.39v-0.39H22.4v1.16l-0.77-0.39v-0.39l0.39-0.39h-0.39h-0.77
	h-0.39h-0.39h-0.39v-0.39l-0.39-0.39l-0.39-0.39h-0.39v-0.39l-0.39-0.39h-1.16l-0.77-0.39h-0.39l-1.16-0.39h-0.39v-0.39h-0.39
	l-0.77-0.39h-0.39l-0.39-0.39l-0.39-0.39h-0.39l-0.39-0.39h-0.39v-0.39H9.62H9.23H8.45z M43.7,184.92l-0.39-0.39l-0.39,0.39H43.7z
	 M43.31,184.54h0.39h0.39h0.39l-0.39-0.39H43.7h-0.39V184.54z M44.09,183.37l0.39,0.39h-0.39V183.37z M44.86,183.37h0.39l-0.39,0.39
	V183.37z M42.15,186.09h0.39v0.39h-0.39V186.09z"/>
<path id="path649" class="st0" d="M106.06,42.34v-0.39l-0.39-0.77l0,0h0.39v0.39h0.39h0.39v0.39v0.39h0.39v0.39l0,0v0.39h-0.39
	l-0.39-0.39L106.06,42.34z"/>
<path id="path651" class="st0" d="M95.99,47.76l1.55-1.55l0.39-0.39l4.26-3.87h0.39l1.16-0.39h0.39l0,0l0,0v-0.39v0.39l0.39,0.39
	l-0.39-0.39h-0.39l0,0l-0.77,0.39h-0.77l-3.49,3.49l-0.39,0.39l0,0h-0.39l-0.39,0.39L95.99,47.76L95.99,47.76z"/>
<path id="path659" class="st0" d="M18.52,168.26L18.52,168.26l-0.39-0.39v-0.39l0,0h0.39l0.39,0.39v0.39l-0.39,0.39l0,0V168.26z"/>
<path id="path661" class="st0" d="M20.46,159.35L20.46,159.35L20.46,159.35l-0.39,0.39v0.77v0.39l0,0l0.39,0.39l0.39-0.39
	l-0.39-0.39l0,0l0.39,0.39l-0.39,0.39l0,0l-0.77-0.39v0.39v0.39l0,0l0,0l-0.39-0.39l0,0l0,0l-0.39,0.39l0,0h0.39v0.39h-0.39v-0.39
	l-0.39,0.39l0,0v0.39v0.77h-0.39l0,0l0.39-0.77v-0.39l-0.39-0.39l0,0h-0.39l0,0l0,0l0,0h0.39l0.39-0.77l0.77-0.39v-0.39l0,0v-0.39
	l0,0l0,0v0.39l0,0l0,0h0.39l0,0l0,0l0,0h0.39v-0.39L20.46,159.35L20.46,159.35z"/>
<path id="path665" class="st0" d="M19.3,177.17l-1.16-0.77l-0.39-0.39l0,0l0.39-0.77l0.39,0.39l0.77,0.39l-0.39,0.39v0.39
	L19.3,177.17z"/>
<path id="path667" class="st0" d="M19.69,175.62H19.3l-0.77-0.39l0,0l0.77-0.39h0.39l0,0V175.62z"/>
<path id="path677" class="st0" d="M82.43,145.4l-0.39,0.39l-0.77,0.39h-0.39l-0.77,1.16h-0.39l-0.77,0.39h-0.39h-0.77h-0.77h-0.77
	l-0.77,0.39h-0.39l-0.39,0.39v0.39l-0.39,0.39l-0.39,0.39l-0.39,1.16l-0.39,0.39l-0.39,0.77l-1.16,0.77l-0.77,0.39l-0.39,0.39
	l-0.39,0.39l-1.55,0.39v0.39l-0.77,0.39l-0.39,0.39h-0.39l-0.39,0.39l-0.39,0.39l-3.1,0.77h-0.39h-0.39l-1.16,0.39h-0.77l-1.16-0.39
	l-0.39-0.39h-0.39l-0.39-0.39h-0.39h-0.77l-0.39,0.39l-0.77,0.39l-0.39,0.39v0.39l-0.39,0.77l-0.39,0.39l-0.39,0.39l-0.39,0.39
	l-0.77,0.39h-0.39l-0.39,0.39h-0.39v-0.39h-0.39l-0.39,0.39h-0.77H49.9l-0.39,0.39h-0.39h-0.39l-0.39,0.77h-0.39v-0.39h-0.39h-0.39
	l-1.16,0.39l-0.39,0.39l-0.39,0.39l-0.39,0.77v0.39v0.77v0.39l0.39,0.39l1.55,1.94v0.77l0.39,0.39v0.39l-0.39,0.77l-0.39,1.16
	l-0.39,0.77v0.39l0.77,1.55l1.55,4.26l0.77,1.16l-0.77,0.39v0.39l0.39,1.16l-0.39,1.16v0.39h0.39l0.39,0.39h2.71v0.39l0.39,0.39
	v1.16l0.39-0.39l1.16,0.39h0.39h0.39h0.39h0.39l0.39-0.39l0.77-0.39h0.39v-0.39v-0.39l-1.94-2.71l-0.39-1.16l0.39-0.39h0.39v-0.39
	v-0.39v-0.39v-0.39h-0.39l-0.39-0.39l0.39-0.39l2.71-1.16h0.77l0.39-0.39l0.39-0.39h0.39h0.39l2.71-0.39l0.39,0.77l-0.77,1.94
	l0.39,2.32l1.94-0.77H65h0.77l1.55,0.39l0.77,0.39h0.39v-0.39l0.39,0.39l0.77-0.39l-0.39-1.55l1.16-0.39h0.39l0.39-1.16l0.77-0.39
	l0.39-0.39l0.39-0.77l0.77-0.39l0.39-0.39l-0.39-0.39h0.39h0.39v-0.39l0.77-0.39l0.39,0.39v0.39h0.39h0.39l0.77,0.39h0.39v0.39v0.39
	l0.39,0.39l0.39-0.39l0.39,0.39l-0.39,0.77v0.77h0.39v0.39h-0.39l-0.39,0.39l-0.39,0.39l0.39,1.55v0.39h0.39h0.39v0.39h-0.39
	l-1.16-0.39l-0.39-0.39h-0.77v-0.39h-0.39l-0.77,0.39v0.39v0.39l0.39,0.39l0.77,0.39h0.39l1.16-0.39h0.77h0.77l0.39,0.39h0.39v-0.39
	h0.39h0.39h0.39h0.39l0.77,0.77v0.39h0.39l0.39,0.39h0.39l1.55-2.32l2.32-1.55v-0.77h0.39v-0.39l-0.39-0.39v-0.39l0.39-0.39v-0.39
	l0.39-0.39l0.77-0.39h0.39l-0.39,0.39l0.39,0.39v0.39h0.39h1.55l1.16,3.49l-0.39,0.77l-1.16,2.32l2.32,2.71v0.39l0.39,0.39
	l0.39,0.39v2.71l1.55,0.39l0.39-0.39l1.16-0.39h0.39v-0.39l2.32,1.55l-0.77,3.1l0.39,0.39l1.55-0.39l1.55,0.39h1.16h0.77l0.39-0.39
	l0.39-0.77l1.16,0.39l1.55,0.39l0.77,0.39l1.16-1.16l0.39-0.39l1.16-0.39l0.39-0.39l0.39-0.39v-0.39h0.39l1.55,0.39v0.39l0.39,0.77
	l1.16,0.77l0.39,0.39v0.39v0.39v0.39v0.39v0.77l0.39,1.55h0.39l1.16-0.39h0.39l1.16-0.39v-1.55l0.39-1.94l0.77-1.55l0.39-0.77
	l1.16-1.16l1.55-0.77h0.39l1.94-0.39l0.77-0.39h0.39l0.39-0.39l3.1-0.77l1.16-0.39h0.39l0.39-0.39h0.39l0.77-0.77l1.16-1.16
	l0.77-0.39l-0.77-1.16l-0.77-1.55l-1.55-2.71v-0.39l-0.77-3.49l-0.39-0.77v-0.77l-0.39-1.16l-0.39-3.49l1.55,0.39l1.16,0.39
	l0.77,0.39h0.77h0.77l0.77-0.39l1.16-0.39l0.77-0.39l0.77-0.39v0.39h0.39l0.39,0.39l0.77,0.77v-0.39h0.39h0.39l-0.39-0.39v-0.39
	v-0.39v-0.39v-0.39l-0.39-0.77l-0.39-0.39v-0.39v-1.16l-0.39-0.39v-0.39l-0.39-0.39l-0.39-0.39l-0.39-0.39l-1.16-0.39v-0.39
	l-0.39-0.39v-1.16v-0.39v-0.39v-0.77h-0.39v-0.39v-0.77l-0.39-1.16h-0.39l-0.39-0.39h-0.77l-0.77-0.39h-0.77l-0.39-0.39v-0.77
	l-0.39-0.77v-0.39v-0.39h-0.39l-0.39-0.39h-0.39h-0.77h-1.16h-0.39l-1.16,0.39h-0.39h-0.77h-0.39h-0.39l-0.39-0.39v-0.39l-0.39-0.39
	l-0.39-0.39h-0.39h-0.39l-0.39-0.39h-0.39v-0.77h-0.39l-0.39-0.39h-0.39h-0.39l-0.39-0.39l-0.39-0.39l-0.39-0.39v-0.77l-0.39-0.39
	h-0.77h-0.39l-0.39-0.39l-0.77-0.39h-0.39h-0.39h-0.77h-0.39l-0.39,0.39v0.39l-0.39,0.39h-0.39l-0.39-0.39h-0.39h-0.39v-0.39
	l-0.39-0.39h-0.39h-0.39h-0.39v0.39l-0.39,0.77l-0.39,0.39h-0.77h-0.77h-0.39l-0.39-0.39l-0.39-0.39v-0.39h-0.39l-0.39,0.39v0.39
	l-0.39,0.39l-0.39,0.39l-0.77,1.16v0.39l-0.39,0.77v0.77v0.77h-0.39v0.39l-1.94,0.77l-0.77,0.39v0.39h-0.39l-0.77-0.39h-0.77
	l-0.39,0.39l-0.39,0.39l-0.39-0.39l-0.77-0.39l-0.39-0.39l-0.39,0.39h-0.39h-0.39h-0.77h-0.39h-0.77h-0.77l-0.77,0.39l-0.39-0.39
	v-0.39h0.39l0.39-0.39l0.39-0.39l-0.39-0.39v-0.39v-0.39v-0.39l-1.16-0.39l-0.39-0.39l-0.39-0.39h-0.39l-0.39,0.39l-0.39,0.39h-0.39
	v-0.39h-0.39v-0.39l-0.39-0.39v-0.39H89.4l-0.39-0.39l-0.77-0.39l-0.39-0.39h-0.39v-0.39v-0.39h-0.39H86.3l-0.39-0.39h-0.39h-0.77
	l-0.77-0.39h-0.39h-0.39H82.43z M82.82,181.44h-0.39h-0.39l0.39,0.39L82.82,181.44z M82.43,177.17h0.39v0.39l0.39,0.39h0.39v0.39
	v0.39h-0.39l-0.39-0.39h-0.39l0.39-0.39l-0.39-0.39V177.17z M83.21,177.17l0.39,0.39h-0.39V177.17z"/>
<path id="path783" class="st0" d="M132.01,149.66l-0.39,0.39l0.39,0.39v0.39v0.39h-0.39l0.39,0.39h0.39v0.39v0.39l0.39,0.77v0.77
	l0.39,0.39h0.77l0.77,0.39h0.77l0.39,0.39h0.39l0.39,1.16v0.77v0.39h0.39v0.77v0.39v0.39v1.16l0.39,0.39v0.39l1.16,0.39l0.39,0.39
	l0.39,0.39l0.39,0.39v0.39l0.39,0.39v1.16v0.39l0.39,0.39l0.39,0.77v0.39v0.39v0.39v0.39l0.39,0.39h-0.39h-0.39v0.39l-0.77-0.77
	l-0.39-0.39h-0.39v-0.39l-0.77,0.39l-0.77,0.39l-1.16,0.39l-0.77,0.39h-0.77h-0.77l-0.77-0.39l-1.16-0.39l-1.55-0.39l0.39,3.49
	l0.39,1.16v0.77l0.39,0.77l0.77,3.49v0.39l1.55,2.71l0.77,1.55l0.77,1.16l-0.77,0.39l-1.16,1.16l-0.77,0.77h-0.39l-0.39,0.39h-0.39
	l-1.16,0.39l-3.1,0.77l-0.39,0.39h-0.39l-0.77,0.39l-1.94,0.39h-0.39l-1.55,0.77l-1.16,1.16l-0.39,0.77l-0.77,1.55l-0.39,1.94v1.55
	l-1.16,0.39h-0.39l-1.16,0.39l0.77,0.39l3.1,1.16l0.39,0.39v0.39l0.39,0.77l0.39-0.39l0.39,0.39h0.39h0.39h0.77h0.39h0.39h0.77
	l0.39-0.39h0.39l0.39,0.39h0.77l0.39,0.39v0.39h0.39l-0.39,0.39h-0.39v0.39h0.39v0.39v0.39v0.39h0.39v-0.39h0.39h0.39v-0.39h0.39
	h0.39v-0.39l0.77-0.39v0.39h0.39v0.77l1.16,0.77l-0.39,0.39l-0.39,0.39v0.39l-0.77,0.39h-0.39v0.39l-0.39,0.39l-0.39,0.39l0.39,0.39
	h0.77l0.39,0.39v0.39l-0.39,0.39v0.39h-0.39l-0.39-0.39h-0.39h-0.39v0.39v0.39l0.39,0.39v0.39h-0.39v0.39l0.39,0.77h-0.39v0.39
	h-0.39l-0.77-0.39l-0.39,1.16v0.77l-0.39,0.39v0.39h0.39l0.39,0.39v0.39l-0.39,0.77v0.39v0.39v0.39l-0.39,0.39l-0.39,0.39
	l-0.39,0.77h-0.39l-0.39,0.77l-0.39,0.77v0.39h0.39h0.39l0.39-0.39h0.39l0.39,0.39v0.39l-0.77,0.39v0.39v0.39l-0.77,0.77v0.39
	l-0.39,0.39l0.39,0.39l-0.39,0.39h-0.39h-0.39h-0.39l-0.39,0.39v0.39v0.39l-0.77,0.77v0.39h-0.39l-0.39,0.39h-0.39v0.39h-0.39h-0.39
	l0.39,0.39l-0.39,0.39v0.39v0.39v0.39v0.39v0.39v0.39h0.39v0.39v0.39h0.39v0.39l0.39,0.39h0.39h0.39v0.39h0.77l0.39,0.39v0.39
	l-0.39,0.39l0.39,1.16v0.77l-0.77,1.16v0.39h0.39h0.39l0.39-0.39h0.39l0.39-0.39v0.39l0.39,0.39h0.39l0.39-0.39v-0.39l0.39-0.39
	l0.77-1.16h0.77v0.77l0.39,0.77l0.39-0.39l0.77,1.16h0.39l0.39-0.39l0.39,0.39l0.39-0.39l0.39-0.39v0.39v0.77l0.39-0.39l0.39-0.39
	v-0.39h0.39h0.39l0.77-0.39v0.39v0.77l0.77,0.39v-0.39h0.39h0.39v0.39l0.77-0.39l0.39-0.39h0.39h0.39h0.39h0.39l0.39,0.39l0.77,0.39
	h0.39v-0.39h0.77h0.39v-0.77l0.39-0.77l-1.16-0.77h-0.39l-0.39-0.39v-0.39h-0.39l-0.39-0.39v-0.39v-0.39l0.39-0.39l0.39,0.39
	l0.77,0.39l0.39-0.77l0.39-0.39v-0.39h0.39l-0.39-0.39v-0.39l-0.39-0.39v-0.39v-0.39l0.39-0.39h0.77l0.39-0.39h0.39v-0.39h0.39v0.39
	l0.77,0.39v-0.77v-0.39h0.39v-0.39l0.39-0.39v-0.77l-0.39-0.39v0.39l-0.39-0.77v-0.39v-0.39l0.39-0.39v-0.39l0.39-0.39v-0.39
	l-0.39-0.39h-0.39h-0.39h-0.77v-0.39v-0.39l-0.39,0.39l-0.39-0.39l-1.16-0.39v-0.77v-0.39l-0.77-0.39l0.39-0.39h0.39v-0.39
	l0.39-1.55h-0.39h-1.55h-0.39l-0.39,0.39h-0.39l-0.39-0.39v-0.39h-0.39l-0.77,0.39h-0.39l-0.39,0.39h-0.39l-0.39,0.39h-0.39
	l-0.39-0.39l0.77-0.77v-1.16h-0.39l-0.39-0.39v-0.39h-0.39v-0.39h-0.39v-0.39v-0.39v-0.39v-0.77l-0.39-0.39l-0.39-0.77h0.39h0.77
	h0.39v-0.39l0.77-0.39l0.39-0.39v0.39l0.77,1.16l0.39,0.77v0.39l0.39-0.39h0.39v0.39h0.39v-0.39l0.39-0.39v-0.39l0.39-0.39v-0.39
	v-0.39l0.39-0.39v-0.39l0.39-0.39v-0.39l0.39-0.39l0.77-0.39l0.39-0.39l0.77-0.39h0.39l0.39-0.39l0.39-0.39v-0.39l0.39-0.39h0.39
	h0.39l0.39-0.39v-0.39v-0.39l0.39-0.39h0.39h0.39l0.39-0.39h0.39v-0.39h0.77l0.39-0.39h0.39h0.77l-0.39-0.39h0.39l0.39-0.39
	l-1.55-1.16h-0.39l2.32-1.16l-0.77-0.77l-2.32,1.16l-0.39,0.39l-0.39,0.39h-0.39h-0.39h-0.77v-0.39l-0.39-0.39v-2.71l-0.39-0.39
	l0.39-0.39h0.77l-0.77-1.55l0.77-0.39l0.39-0.77l1.55-1.55v-0.39l0.39-0.39l0.77-1.16l0.39-0.77v-0.39l0.39-0.39v-0.39v-0.39
	l0.39-0.39v-0.39h0.39h0.39h0.39v-0.39l1.94-1.94l-0.39-1.16l-0.39-0.77v-0.39l0.39-0.39l0.39-0.39h-1.16v-0.39l0.39-2.32v-1.16
	h0.39l-0.39-0.77l0.39-0.39v-1.16l-0.39-0.77l-0.39-0.77l0.39-0.77l-0.39-0.39v-0.77v-0.39l-0.39-0.77l-0.77-0.39l-0.77-0.39
	l-0.77-2.32l-0.77-0.39l-0.39-0.39l-0.39-0.39l-0.39-0.77v-0.39h-0.39l-1.16-0.77v-0.77v-0.77h0.39v-0.39l0.39-1.16v-0.39l0.39-0.39
	v-0.39l-0.77-0.39h-0.39h-0.39v-0.39h-0.39h-0.39l-1.94-0.77l-0.39-0.39v-0.39v-0.39l0.39-0.39l-0.39-0.39v-0.39v-0.77h0.39h0.39
	v-0.39h-0.39v-0.39v-0.39h-0.39l-1.16-0.77l-0.39-0.39h-0.77h-0.39h-1.16v-0.39l-0.39,0.39h-0.39l-0.39-0.39v-0.39h-0.39l-0.39-0.39
	v-0.39l-0.39-0.39v-0.39l-0.39-0.39l-0.39-0.39h-0.39H132.01z"/>
<path id="path861" class="st0" d="M101.8,73.33L101.8,73.33h0.77l2.71,1.16l0.39,0.39l1.94,1.94l0.77,1.16v0.39l1.94,3.1l0.77,1.94
	v0.39h-0.39l-0.39,0.39l-0.77,0.39l-0.39,1.55l-0.39,0.77h0.39l0,0l-0.39,0.77V86.9l0,0l0.39-0.77l0.39-1.55l0.39-0.39l0.77-0.39
	h0.39v-0.39l-0.77-1.94l-2.71-4.65l-1.94-1.94l-0.39-0.39l-2.32-1.16l-0.39,0.77l0,0h-0.39h-0.39h-0.39h0.39l0.39-0.39l0.39-0.39
	h-0.39l0,0H101.8z"/>
<path id="path869" class="st0" d="M154.86,4.75h0.77l0,0v0.39l0,0l-0.77,0.39V4.75z"/>
<path id="path871" class="st0" d="M161.83,1.27v0.39l0,0l0.39,0.39l0.39,0.39l0.39,0.39l-0.39-0.39h-0.39h-0.77h-0.39l0,0v0.39V3.2
	h0.39l0,0l-0.39,0.77l-0.39-0.39l-0.39-1.16l-0.39-0.39V1.65l0.39-0.77h0.39h0.39h0.39L161.83,1.27L161.83,1.27L161.83,1.27z"/>
<path id="path873" class="st0" d="M165.7,1.65h0.77h0.77l0.77,0.39v0.39V2.04h-0.77h-0.77h-0.39l0,0h-0.39l-0.39,0.39l0,0V2.04
	L165.7,1.65L165.7,1.65z"/>
<path id="path887" class="st0" d="M146.72,15.99l0.39,0.39v-0.39l0,0l0.77,0.39l0,0v0.39l0,0h-0.39h-0.39l-0.39-0.39V15.99
	L146.72,15.99z"/>
<path id="path907" class="st0" d="M30.53,152.38L30.53,152.38L30.53,152.38v-0.39h0.39l0.77,0.39H31.3H30.53L30.53,152.38z"/>
<path id="path909" class="st0" d="M44.86,160.9v-0.39l-0.39-0.39l-0.39-0.39v0.39H43.7l-0.77-0.77l0.39-0.39l0,0h-0.39v0.39h-0.77
	v-0.39h0.77l0,0h1.16h0.39l0,0h-0.39l0,0H43.7l0,0v0.39l0,0h0.77v0.39l0.39,0.39v0.39V160.9L44.86,160.9L44.86,160.9z"/>
<path id="path911" class="st0" d="M34.02,150.83h0.39l0.39-0.39l0,0v0.39v0.39l0.39,1.16l0.77,0.77l0,0l0,0l-0.39,0.39h-0.39v-0.39
	l-0.39-0.39v-0.39l-0.39-0.77l-0.39-0.39l0,0V150.83z"/>
<path id="path913" class="st0" d="M32.85,151.6l-0.39,0.39h-0.39h-0.39v-0.39h0.39h0.39h0.77H32.85z"/>
<path id="path915" class="st0" d="M31.69,160.9l-0.39,0.39h-0.39l0,0h-0.39l0,0l-0.77-0.39h-0.39l0,0l0.77-0.39v-0.39v0.39
	l-0.77,0.39h-0.39l0.39-0.77l-0.39-0.39v-0.77h-0.39v-0.39v-0.39l-0.39-0.77l-0.77-0.39l-0.39,0.39v-0.39l-1.16-0.39l0,0l0,0v-0.39
	l0,0v-0.39l-0.39-0.39h-0.77h-0.39l-0.39,0.39v0.39h0.39l0.39-0.39l0.39,0.39l-0.39-0.39l-0.39,0.39h-0.77l-0.39,0.77l-0.77,0.39
	l0,0l0,0l0,0h-0.39h-0.39l-0.77,0.39l-0.39,0.39v0.77l0,0h0.39v0.39h-0.39l0,0l0,0l-0.39-0.39l0,0l0,0h0.39l0,0v-0.77l0,0
	l-0.39-0.39h-0.39H19.3v-0.39l-0.39-0.39l-0.39-0.77v-0.77v-0.77v-0.39l0.39-0.77l0.77-0.77l0.77-0.39h0.39h0.39l1.55-0.39
	l0.39-0.39h0.77h0.77l1.16,0.39v-0.39l0,0v-0.39l0.39-0.39v-0.39h0.39h0.39l-0.39,0.39h0.39l-0.39,0.39l0,0l0,0l0,0v-0.39l0,0h-0.39
	v0.39l-0.39,0.77h0.39h0.39h0.39h0.39l0,0l0,0h1.16l0.77-0.39l0,0l0.39,0.39l0,0l0.39,0.39v0.39h0.39l0,0h0.39h0.39l0.77-0.39
	l0.39,0.39h1.16l0,0v0.39l0,0v-0.39l0.39,0.39v0.77l0,0l0.39,0.39l0.77,0.77l0.39,0.77v0.77h0.39h0.77h0.39l0.77,0.39l0,0l1.16,0.77
	h0.39l0,0v0.39h0.39l0.77-0.77h0.39h0.39l0,0h1.16l0,0l0.39-0.39h0.39v0.77v0.39h0.39l0,0l-0.39,0.39l0,0h-0.39l0.39-0.39l0,0
	l-0.39-0.39v-0.39h-0.39v0.39l-0.39-0.39l-1.16,0.39H40.6l-0.39,0.39h-0.39v0.39l0.39,0.39l0,0v0.39l0,0l0,0l0,0l-0.39,0.39h0.39
	v-0.39l-0.39,0.39v0.39h-0.39l-0.39,0.39l-0.39,0.77h-0.39l-0.39,0.39l-0.39-0.39l-0.77,0.39l-0.39,0.39h-0.77v0.39H34.4h-0.39
	h-0.77h-0.39l0,0l-0.77-0.77l0,0l0,0L31.69,160.9L31.69,160.9z"/>
<path id="path929" class="st0" d="M27.82,168.65v-0.39h-0.39h0.39l0,0V168.65L27.82,168.65L27.82,168.65z"/>
<path id="path931" class="st0" d="M26.66,163.23L26.66,163.23h0.39l0,0v0.39h0.39h0.39l0.39,0.39v0.39l0.39,0.77l0.39,0.39v0.39l0,0
	h0.39v0.39v0.39l0,0v0.39l0,0l-0.39,0.39h-0.77l0,0l0,0l-0.39,0.77l0,0h-0.77l-0.39-0.39l-0.39-0.39l0,0h-0.77h-0.39v0.39h-0.39l0,0
	h-0.39h-0.77l-0.39-0.39H22.4l-1.55,0.39l-0.39,0.39l-0.39,0.77h-0.39l-0.39,0.77l0,0v-0.39l-0.39-0.39l0.39-0.39v-0.39v-0.39
	l-0.77-0.77h0.39v-0.39l0.39-0.39l0,0l-0.39,0.39l0,0l-0.39,0.39l0,0l-0.39-0.39l-0.39-0.39h-0.39l-0.39-0.39h-0.39v-0.77H16.2
	v-0.39v-0.39h0.39l0,0H16.2h-0.39l0,0l0,0l1.16-0.39l1.16-0.39v-0.39l0,0h0.39l0,0v0.39h0.39h0.39l0.39,0.39h0.39l0.39,0.39l0,0
	h0.39l0.39-0.39h0.39l0.77-0.39l0,0l0.77,0.39l0.39-0.39l0,0l0.77-0.39l0,0h0.77l0.39,0.39l0.77-0.39H26.66L26.66,163.23z"/>
<path id="path949" class="st0" d="M56.09,155.86l-0.39,0.39l0,0h0.39l0,0h-0.39v0.39l-0.39-0.39l0,0l0,0L56.09,155.86z"/>
<path id="path1011" class="st0" d="M82.82,177.17v0.39l0.39,0.39l0,0v-0.39v-0.39l0.39,0.39l0,0h-0.39l0,0v0.39l0,0h0.39v0.39l0,0
	v0.39l0,0h-0.39l-0.39-0.39h-0.39l0.39-0.39l-0.39-0.39v-0.39H82.82L82.82,177.17z"/>
</svg>
